<svg width="480" height="469" viewBox="0 0 480 469" fill="none" xmlns="http://www.w3.org/2000/svg">
<path d="M58.3005 63.315L70.8957 63.0524L77.2893 62.9492C79.4301 62.9492 81.5709 62.9492 83.7213 62.9492H84.1437V63.3713L84.2013 73.8675V74.3365H83.7213L71.0397 74.224C66.7965 74.224 62.5629 74.1208 58.3293 74.0645H58.0605V73.8113C58.0605 72.0291 58.1469 70.2656 58.1853 68.5116L58.3005 63.315ZM58.3005 63.315L58.4349 68.6241C58.4349 70.3688 58.5405 72.0947 58.5597 73.8113L58.3005 73.558C62.5341 73.558 66.7677 73.4079 71.0109 73.4079L83.7213 73.3423L83.2413 73.8113L83.2893 63.315L83.7213 63.7371C81.6189 63.7371 79.5358 63.7371 77.4333 63.6809L71.1165 63.5777L58.3005 63.315Z" fill="#EBEBEB"/>
<path d="M72.4797 50.0802L85.0749 49.8175L91.4685 49.7144C93.6093 49.7144 95.7597 49.7144 97.9005 49.7144H98.3229V50.1365L98.3805 60.6327V61.1017H97.9197L85.1901 60.9704C80.9469 60.9704 76.7133 60.8672 72.4797 60.8109H72.2109V60.5576C72.2109 58.7754 72.2973 57.012 72.3357 55.2579L72.4797 50.0802ZM72.4797 50.0802L72.6141 55.3893C72.6141 57.1339 72.7197 58.8599 72.7389 60.5764L72.4797 60.3231C76.7133 60.3231 80.9469 60.1731 85.1901 60.1731L97.9197 60.1074L97.4397 60.5764V50.0802L97.8717 50.5023C95.7789 50.5023 93.6861 50.5023 91.5837 50.446L85.2669 50.3428L72.4797 50.0802Z" fill="#EBEBEB"/>
<path d="M97.1321 184.936L109.727 184.674L116.121 184.57C118.262 184.524 120.412 184.57 122.553 184.514H122.975V184.936L123.033 195.432V195.901H122.553L109.842 195.836C105.599 195.836 101.366 195.733 97.1321 195.686H96.8633V195.432C96.8633 193.65 96.9497 191.877 96.9881 190.123L97.1321 184.936ZM97.1321 184.936L97.2665 190.236C97.2665 191.981 97.3721 193.716 97.3913 195.432L97.1321 195.17C101.366 195.17 105.599 195.02 109.842 195.02L122.553 194.963L122.073 195.432V184.936L122.505 185.349C120.402 185.349 118.319 185.349 116.217 185.349L109.9 185.246L97.1321 184.936Z" fill="#EBEBEB"/>
<path d="M111.361 171.701L123.956 171.438L130.349 171.335C132.49 171.335 134.641 171.335 136.781 171.279H137.204V171.701L137.261 182.197V182.666H136.781L124.071 182.6C119.828 182.6 115.594 182.497 111.361 182.45H111.092V182.197C111.092 180.415 111.178 178.642 111.226 176.888L111.361 171.701ZM111.361 171.701L111.495 177.001C111.495 178.745 111.601 180.481 111.62 182.197L111.361 181.972C115.594 181.925 119.828 181.831 124.071 181.822L136.781 181.766L136.301 182.235V171.738L136.733 172.151C134.641 172.151 132.548 172.151 130.445 172.104L124.129 172.001L111.361 171.701Z" fill="#EBEBEB"/>
<path d="M44.1607 50.0802L56.7655 49.8175L63.1111 49.7144C65.2423 49.7144 67.3927 49.7144 69.5335 49.7144H69.9655V50.1365L70.0135 60.6327V61.1017H69.5239L56.8231 60.9704C52.5895 60.9704 48.3559 60.8672 44.1127 60.8109H43.8535V60.5576C43.8535 58.7754 43.9399 57.012 43.9783 55.2579L44.1607 50.0802ZM44.1607 50.0802L44.3047 55.3893C44.3047 57.1339 44.4103 58.8599 44.4295 60.5764L44.1607 60.3231C48.4039 60.3231 52.6375 60.1731 56.8711 60.1731L69.5815 60.1074L69.1015 60.5764L69.1207 50.0802L69.5431 50.5023C67.4503 50.5023 65.3671 50.5023 63.2647 50.446L56.9479 50.3428L44.1607 50.0802Z" fill="#EBEBEB"/>
<path d="M421.7 278.033L409.104 278.295L402.711 278.408C400.57 278.408 398.429 278.408 396.279 278.455H395.856V278.033L395.799 267.546V267.067H396.279L408.989 267.124C413.232 267.124 417.466 267.227 421.7 267.274H421.968V267.527C421.968 269.3 421.882 271.073 421.844 272.827L421.7 278.033ZM421.7 278.033L421.565 272.733C421.565 270.988 421.46 269.262 421.44 267.546L421.7 267.799C417.466 267.846 413.232 267.949 408.989 267.949L396.279 268.005L396.759 267.546L396.711 278.033L396.279 277.62C398.381 277.62 400.464 277.62 402.567 277.62L408.884 277.732L421.7 278.033Z" fill="#EBEBEB"/>
<path d="M435.887 291.268L423.282 291.531L416.889 291.643C414.748 291.643 412.607 291.643 410.466 291.69H410.034V291.268L409.986 280.772V280.303H410.476L423.186 280.359C427.42 280.359 431.654 280.462 435.897 280.509H436.156V280.753C436.156 282.535 436.07 284.308 436.031 286.062L435.887 291.268ZM435.887 291.268L435.743 285.968C435.743 284.224 435.638 282.498 435.618 280.772L435.887 281.034C431.644 281.081 427.41 281.184 423.177 281.184L410.466 281.241L410.946 280.772L410.879 291.268L410.457 290.855C412.55 290.855 414.633 290.855 416.735 290.902L423.052 291.015L435.887 291.268Z" fill="#EBEBEB"/>
<path d="M83.9321 291.268L71.3368 291.531L64.9433 291.643C62.8025 291.643 60.6521 291.643 58.5113 291.69H58.0888V291.268L58.0312 280.772V280.303H58.5592L71.2696 280.359C75.5128 280.359 79.7465 280.462 83.9801 280.509H84.2489V280.753C84.2489 282.535 84.1625 284.308 84.1145 286.062L83.9321 291.268ZM83.9321 291.268L83.7977 285.968C83.7977 284.224 83.6921 282.498 83.6729 280.772L83.9321 281.034C79.6985 281.081 75.4649 281.184 71.2217 281.184L58.5592 281.241L59.0392 280.772L58.9913 291.268L58.5592 290.855C60.652 290.855 62.7449 290.855 64.8473 290.902L71.164 291.015L83.9321 291.268Z" fill="#EBEBEB"/>
<path d="M396.173 50.0802L408.778 49.8175L415.172 49.7144C417.303 49.7144 419.453 49.7144 421.594 49.7144H422.026V50.1365L422.074 60.6327V61.1017H421.594L408.884 60.9704C404.65 60.9704 400.407 60.8672 396.173 60.8109H395.914V60.5576C395.914 58.7754 395.991 57.012 396.039 55.2579L396.173 50.0802ZM396.173 50.0802L396.308 55.3893C396.356 57.1339 396.423 58.8599 396.432 60.5764L396.173 60.3231C400.407 60.3231 404.65 60.1731 408.884 60.1731L421.594 60.1074L421.114 60.5764L421.172 50.0802L421.594 50.5023C419.501 50.5023 417.408 50.5023 415.316 50.446L408.96 50.3428L396.173 50.0802Z" fill="#EBEBEB"/>
<path d="M432.643 211.782H304.828V37.3794H432.643V211.782ZM308.62 208.077H428.851V41.0845H308.62V208.077Z" fill="#EBEBEB"/>
<path d="M370.628 42.0508H366.836V209.925H370.628V42.0508Z" fill="#EBEBEB"/>
<path d="M436.09 44.874H301.393V50.033H436.09V44.874Z" fill="#EBEBEB"/>
<path d="M436.09 50.6802H301.393V55.8392H436.09V50.6802Z" fill="#EBEBEB"/>
<path d="M436.09 56.4771H301.393V61.6361H436.09V56.4771Z" fill="#EBEBEB"/>
<path d="M436.09 62.2832H301.393V67.4422H436.09V62.2832Z" fill="#EBEBEB"/>
<path d="M436.09 68.0898H301.393V73.2488H436.09V68.0898Z" fill="#EBEBEB"/>
<path d="M436.09 73.896H301.393V79.055H436.09V73.896Z" fill="#EBEBEB"/>
<path d="M436.09 79.7021H301.393V84.8611H436.09V79.7021Z" fill="#EBEBEB"/>
<path d="M436.09 85.5083H301.393V90.6673H436.09V85.5083Z" fill="#EBEBEB"/>
<path d="M436.09 91.3145H301.393V96.4735H436.09V91.3145Z" fill="#EBEBEB"/>
<path d="M424.82 43.8237H423.869V144.237H424.82V43.8237Z" fill="#A6A6A6"/>
<path d="M426.03 148.551H422.66L423.505 143.824H425.185L426.03 148.551Z" fill="#A6A6A6"/>
<path d="M428.237 43.8237H427.287V169.563H428.237V43.8237Z" fill="#A6A6A6"/>
<path d="M429.446 173.042H426.076L426.921 168.315H428.601L429.446 173.042Z" fill="#A6A6A6"/>
<path d="M441.975 36.6572H295.508V47.4536H441.975V36.6572Z" fill="#DBDBDB"/>
<path d="M147.878 98.5654H40.5312V104.794H147.878V98.5654Z" fill="#EBEBEB"/>
<path d="M55.056 104.793H48.6816V125.392H55.056V104.793Z" fill="#EBEBEB"/>
<path d="M55.056 104.793H48.6816V111.162H55.056V104.793Z" fill="#DBDBDB"/>
<path d="M139.728 104.793H133.354V125.392H139.728V104.793Z" fill="#EBEBEB"/>
<path d="M139.728 104.793H133.354V111.162H139.728V104.793Z" fill="#DBDBDB"/>
<path d="M64.7324 98.5653V58.8691H54.4988V98.5653H64.7324Z" fill="#C7C7C7"/>
<path d="M64.7324 61.1205V56.7588H54.4988V61.1205H64.7324Z" fill="#DBDBDB"/>
<path d="M64.7324 68.3239V66.7012H54.4988V68.3239H64.7324Z" fill="#DBDBDB"/>
<path d="M66.0098 93.3593V88.9976H54.509V93.3593H66.0098Z" fill="#DBDBDB"/>
<path d="M71.875 98.5653V52.2656H64.723V98.5653H71.875Z" fill="#DBDBDB"/>
<path d="M70.416 74.4303V56.6177H66.1248V74.4303H70.416Z" fill="#EBEBEB"/>
<path d="M122.728 93.6098L89.0293 61.0601L84.0013 66.0298L117.7 98.5795L122.728 93.6098Z" fill="#C7C7C7"/>
<path d="M113.846 86.9465L100.881 74.4238L97.8641 77.4057L110.829 89.9283L113.846 86.9465Z" fill="#DBDBDB"/>
<path d="M84.0195 98.5748V63.4092H71.8755V98.5748H84.0195Z" fill="#A6A6A6"/>
<path d="M84.0195 94.8415V91.5679H71.8755V94.8415H84.0195Z" fill="#C7C7C7"/>
<path d="M84.0195 89.4197V88.144H71.8755V89.4197H84.0195Z" fill="#C7C7C7"/>
<path d="M54.5 98.5839V65.5288H46.1096V98.5839H54.5Z" fill="#A6A6A6"/>
<path d="M54.5 95.0664V91.9897H46.1096V95.0664H54.5Z" fill="#C7C7C7"/>
<path d="M54.5 75.4062V72.3296H46.1096V75.4062H54.5Z" fill="#C7C7C7"/>
<path d="M54.5 78.7171V77.5259H46.1096V78.7171H54.5Z" fill="#C7C7C7"/>
<path d="M433.267 418.902C433.267 432.212 346.732 443.008 240 443.008C133.267 443.008 46.7324 432.212 46.7324 418.902C46.7324 405.591 133.267 394.795 240 394.795C346.732 394.795 433.267 405.591 433.267 418.902Z" fill="#EBEBEB"/>
<path d="M384.135 306.388C384.135 306.388 368.208 302.861 359.482 295.001C350.756 287.14 345.869 273.061 345.869 273.061C351.923 274.195 357.892 275.728 363.735 277.648C365.927 279.858 367.751 282.39 369.14 285.152C369.277 283.375 369.277 281.591 369.14 279.815C371.18 280.674 373.089 281.804 374.813 283.173C382.08 289.326 384.135 306.388 384.135 306.388Z" fill="#FFDF27"/>
<path d="M355.814 279.899C353.645 278.436 351.437 277.02 349.277 275.538C349.142 275.453 349.277 275.247 349.401 275.331C353.51 277.723 357.552 280.284 361.469 282.967C362.832 283.905 364.176 284.871 365.501 285.865L365.222 285.406C364.742 284.627 364.262 283.858 363.734 283.089C362.737 281.529 361.606 280.054 360.355 278.68C360.307 278.633 360.355 278.558 360.432 278.605C361.67 280.003 362.909 281.419 364.041 282.873C364.579 283.576 365.078 284.308 365.558 285.049C365.808 285.443 366.048 285.828 366.269 286.231L366.509 286.625C368.573 288.21 370.579 289.861 372.489 291.596C373.673 292.672 374.816 293.785 375.917 294.936C375.293 293.06 374.755 291.184 374.045 289.308C374.045 289.242 374.131 289.214 374.15 289.308C374.841 291.249 375.6 293.21 376.137 295.208C377.357 296.493 378.528 297.825 379.622 299.222L379.565 298.969C379.382 298.228 379.2 297.496 378.998 296.774C378.614 295.367 378.182 293.96 377.702 292.581C376.784 289.717 375.333 287.042 373.421 284.693C373.373 284.636 373.421 284.561 373.497 284.618C376.481 288.255 378.57 292.514 379.603 297.065C379.776 297.721 379.929 298.387 380.083 299.053C380.169 299.41 380.265 299.766 380.323 300.132C380.803 300.77 381.283 301.408 381.734 302.064C384.438 306.124 386.691 310.454 388.454 314.981C390.456 320.057 392.174 325.236 393.6 330.495C393.594 330.512 393.583 330.526 393.568 330.536C393.554 330.546 393.536 330.552 393.518 330.552C393.5 330.552 393.483 330.546 393.468 330.536C393.454 330.526 393.443 330.512 393.437 330.495C390.317 321.387 387.139 312.148 381.801 304.015C380.676 302.296 379.462 300.633 378.163 299.035C375.524 298.87 372.919 298.365 370.416 297.534C367.685 296.63 365.079 295.398 362.659 293.866C361.28 292.956 359.95 291.976 358.675 290.93C358.666 290.927 358.659 290.922 358.652 290.916C358.646 290.909 358.642 290.902 358.639 290.893C358.637 290.885 358.636 290.876 358.638 290.867C358.64 290.858 358.643 290.85 358.649 290.843C358.655 290.836 358.662 290.83 358.67 290.826C358.678 290.823 358.687 290.821 358.696 290.821C358.706 290.821 358.714 290.824 358.722 290.828C358.73 290.832 358.737 290.839 358.742 290.846C360.968 292.601 363.425 294.056 366.048 295.17C368.622 296.324 371.316 297.205 374.083 297.797C375.254 298.05 376.454 298.237 377.645 298.397C376.172 296.623 374.605 294.926 372.95 293.313C372.413 292.788 371.856 292.281 371.299 291.775C369.443 290.506 367.473 289.404 365.414 288.482C362.803 287.244 360.23 285.94 357.648 284.655C356.189 283.933 354.768 283.192 353.28 282.488C353.213 282.488 353.28 282.376 353.337 282.404C355.949 283.642 358.608 284.796 361.248 285.978C363.888 287.16 366.259 288.21 368.64 289.514L368.947 289.692C366.787 287.816 364.55 286.109 362.227 284.421C360.134 282.901 357.993 281.4 355.814 279.899Z" fill="#263238"/>
<path d="M356.727 287.966C358.023 288.52 359.339 289.007 360.625 289.598C361.911 290.189 363.188 290.902 364.465 291.624C364.471 291.628 364.476 291.632 364.48 291.637C364.484 291.642 364.487 291.647 364.489 291.653C364.49 291.66 364.491 291.666 364.49 291.672C364.489 291.678 364.487 291.685 364.484 291.69C364.481 291.696 364.477 291.701 364.472 291.705C364.467 291.708 364.461 291.711 364.455 291.713C364.448 291.715 364.442 291.715 364.435 291.715C364.429 291.714 364.423 291.712 364.417 291.709C363.15 291.118 361.864 290.565 360.577 289.945C359.291 289.326 358.014 288.632 356.689 288.069C356.631 287.966 356.66 287.901 356.727 287.966Z" fill="#263238"/>
<path d="M435.841 227.934C432.884 231.639 431.204 236.164 431.041 240.86C430.993 242.257 431.214 244.208 431.387 246.488C427.41 248.742 423.887 251.685 420.99 255.174C424.169 253.368 427.821 252.514 431.492 252.716C431.41 254.292 431.208 255.86 430.887 257.406C428.582 257.413 426.3 257.856 424.167 258.71C426.258 258.688 428.33 259.091 430.254 259.892C427.374 268.718 418.983 277.789 395.694 281.635C393.227 270.809 394.686 259.483 399.822 249.592C406.82 236.151 435.841 227.934 435.841 227.934Z" fill="#FFDF27"/>
<path d="M387.647 319.38C388.051 315.628 388.553 311.876 389.155 308.124C390.334 300.622 391.901 293.184 393.849 285.837C394.765 282.388 395.89 278.996 397.219 275.678C397.152 275.074 397.123 274.466 397.132 273.859C397.132 273.127 397.132 272.395 397.132 271.664C397.132 270.21 397.219 268.756 397.343 267.302C397.579 264.42 398.058 261.562 398.774 258.757C399.206 257.134 399.734 255.539 400.185 253.935C400.189 253.925 400.197 253.917 400.206 253.911C400.216 253.905 400.227 253.902 400.238 253.902C400.249 253.902 400.26 253.905 400.269 253.911C400.279 253.917 400.286 253.925 400.291 253.935C399.513 256.735 398.936 259.584 398.563 262.462C398.15 265.295 397.89 268.147 397.785 271.007C397.785 271.786 397.737 272.574 397.737 273.352C397.737 273.69 397.737 274.027 397.737 274.356C398.884 271.637 400.195 268.987 401.663 266.42C404.031 262.351 406.697 258.454 409.641 254.761C409.647 254.329 409.711 253.9 409.833 253.485C409.939 252.979 410.054 252.472 410.169 251.956C410.409 250.924 410.678 249.883 410.966 248.861C411.542 246.797 412.31 244.799 412.972 242.764C412.977 242.754 412.984 242.745 412.993 242.739C413.003 242.733 413.014 242.73 413.025 242.73C413.036 242.73 413.047 242.733 413.057 242.739C413.066 242.745 413.073 242.754 413.078 242.764C412.463 244.781 412.051 246.872 411.58 248.927C411.34 249.94 411.119 250.953 410.889 251.975C410.774 252.482 410.659 252.988 410.553 253.495C410.553 253.495 410.553 253.579 410.553 253.617C411.494 252.453 412.454 251.309 413.433 250.183C417.878 245.081 422.755 240.372 427.67 235.71C428.275 235.129 428.889 234.575 429.503 234.003C429.503 234.003 429.628 234.003 429.58 234.087C424.886 238.871 420.268 243.702 415.891 248.767C414.844 249.977 413.827 251.196 412.819 252.425L414.412 251.393C415.766 250.53 417.139 249.686 418.55 248.917C419.961 248.148 421.43 247.379 422.841 246.675C424.252 245.972 425.932 245.362 427.382 244.546C427.439 244.546 427.497 244.612 427.43 244.64C425.957 245.304 424.536 246.072 423.177 246.938C421.756 247.763 420.345 248.589 418.953 249.452C417.561 250.315 416.207 251.14 414.844 252.003C413.711 252.725 412.598 253.513 411.417 254.17C408.716 257.563 406.222 261.108 403.948 264.788C402.544 267.108 401.262 269.497 400.108 271.945L400.943 271.589L403.084 270.651C404.447 270.06 405.83 269.478 407.203 268.897C409.814 267.78 412.473 266.767 415.036 265.548C416.481 264.882 417.879 264.124 419.222 263.278C419.279 263.278 419.327 263.278 419.27 263.372C414.47 266.589 409.132 268.85 403.852 271.138L401.558 272.133C400.924 272.405 400.291 272.705 399.638 272.949C398.07 276.371 396.751 279.897 395.692 283.501C393.611 290.751 391.919 298.103 390.623 305.525C389.289 312.964 388.387 320.449 387.686 327.972C387.599 328.91 387.513 329.848 387.398 330.786C387.385 330.855 387.348 330.918 387.293 330.963C387.237 331.008 387.167 331.033 387.095 331.033C387.023 331.033 386.953 331.008 386.898 330.963C386.843 330.918 386.806 330.855 386.793 330.786C386.879 326.996 387.235 323.179 387.647 319.38Z" fill="#263238"/>
<path d="M401.827 256.496C402.249 254.179 402.883 251.919 403.516 249.649C403.516 249.583 403.641 249.649 403.622 249.649C403.036 251.872 402.614 254.142 402.182 256.393C401.75 258.644 401.366 261.008 401.03 263.325C401.03 263.325 400.963 263.372 400.963 263.325C401.118 261.034 401.406 258.755 401.827 256.496Z" fill="#263238"/>
<path d="M411.839 262.771C413.462 261.722 415.155 260.782 416.908 259.957C417.753 259.535 418.617 259.123 419.471 258.719C420.326 258.316 421.286 257.95 422.169 257.519C422.227 257.519 422.275 257.575 422.169 257.603C421.315 258.025 420.508 258.541 419.673 258.972L417.081 260.361C415.382 261.252 413.702 262.237 411.916 262.968C411.896 262.963 411.877 262.953 411.862 262.939C411.847 262.925 411.835 262.908 411.827 262.889C411.82 262.87 411.817 262.849 411.819 262.829C411.821 262.808 411.828 262.789 411.839 262.771Z" fill="#263238"/>
<path opacity="0.1" d="M383.846 279.43C383.846 279.43 369.11 275.988 362.342 266.298C355.881 257.078 353.788 241.348 353.625 239.959C353.884 241.235 356.927 254.967 366.959 261.383C374.649 266.317 382.079 270.351 383.846 279.43Z" fill="#263238"/>
<path d="M383.847 279.43C383.847 279.43 369.111 275.988 362.343 266.298C355.883 257.078 353.79 241.347 353.626 239.959C353.622 239.928 353.622 239.896 353.626 239.865C353.626 239.865 360.692 249.686 368.122 252.191C375.553 254.695 385.979 263.381 383.847 279.43Z" fill="#FFDF27"/>
<path d="M356.218 245.306C357.54 247.953 359.065 250.499 360.778 252.923C362.495 255.222 364.534 257.275 366.835 259.02C368.842 260.577 370.954 261.984 372.979 263.503V263.428C372.595 262.884 372.192 262.34 371.77 261.824C370.925 260.764 370.003 259.77 369.072 258.785C367.248 256.843 365.376 254.939 363.735 252.838C362.819 251.669 362.028 250.412 361.373 249.086C361.373 249.021 361.44 248.992 361.469 249.086C363.859 253.954 368.64 257.069 372.029 261.177C372.511 261.761 372.963 262.368 373.383 262.997C373.721 263.453 374.007 263.943 374.237 264.46C376.104 265.923 377.792 267.591 379.267 269.431C379.139 268.48 378.94 267.54 378.672 266.617C378.332 265.334 377.805 264.106 377.107 262.969C377.107 262.912 377.165 262.847 377.203 262.912C377.915 264.052 378.491 265.266 378.922 266.533C379.233 267.542 379.414 268.585 379.459 269.638C380.189 270.606 380.856 271.618 381.456 272.668C381.389 272.358 381.331 272.048 381.274 271.73C380.976 270.294 380.659 268.859 380.314 267.443C379.618 264.56 378.42 261.815 376.771 259.329C376.723 259.273 376.771 259.217 376.858 259.273C378.548 261.721 379.871 264.393 380.784 267.208C381.255 268.625 381.629 270.022 381.965 271.514C382.128 272.217 382.272 272.93 382.407 273.643C382.483 274.009 382.56 274.393 382.627 274.769C384.086 277.906 385.225 281.177 386.026 284.533C387.47 290.53 388.519 296.611 389.165 302.74C389.926 309.156 390.266 315.613 390.183 322.072C390.183 322.888 390.115 323.695 390.077 324.501C390.077 324.708 389.741 324.745 389.731 324.501C389.587 321.303 389.501 318.104 389.309 314.915C389.117 311.726 388.829 308.537 388.483 305.347C387.811 299.091 386.785 292.875 385.411 286.728C384.211 281.466 382.666 276.166 379.719 271.551C378.255 269.255 376.464 267.173 374.4 265.37C372.336 263.56 370.08 261.974 367.901 260.295C365.693 258.653 363.689 256.764 361.93 254.667C360.131 252.341 358.563 249.854 357.245 247.238L356.189 245.287C356.093 245.306 356.16 245.25 356.218 245.306Z" fill="#263238"/>
<path d="M358.763 247.426C359.732 249.369 360.829 251.249 362.046 253.054C362.046 253.054 362.046 253.138 361.979 253.054C360.713 251.272 359.602 249.389 358.657 247.426C358.628 247.398 358.734 247.36 358.763 247.426Z" fill="#263238"/>
<path d="M437.932 273.061C437.932 273.061 438.172 293.528 425.644 299.428C413.116 305.328 406.444 300.423 397.9 302.402C398.227 301.914 404.304 293.378 413.961 291.033C423.907 288.604 434.88 281.587 437.932 273.061Z" fill="#FFDF27"/>
<path opacity="0.1" d="M437.932 273.061C437.932 273.061 438.172 293.528 425.644 299.428C413.116 305.328 406.444 300.423 397.9 302.402C402.398 300.305 407.206 298.915 412.147 298.284C420.048 297.346 435.129 292.328 437.932 273.061Z" fill="black"/>
<path d="M397.076 302.768C398.564 301.436 400.242 300.324 402.059 299.466C402.318 299.344 402.596 299.241 402.875 299.128C403.002 298.964 403.14 298.807 403.288 298.659C403.672 298.275 404.056 297.909 404.468 297.562C405.256 296.901 406.101 296.308 406.993 295.789C409.067 294.598 411.342 293.763 413.464 292.656C413.521 292.656 413.579 292.713 413.512 292.75C412.465 293.275 411.448 293.866 410.43 294.448C409.412 295.029 408.424 295.555 407.454 296.164C406.586 296.711 405.759 297.316 404.977 297.975C404.756 298.162 404.545 298.369 404.334 298.575C405.72 298.121 407.134 297.754 408.568 297.478C410.862 297.027 413.176 296.708 415.47 296.23C416.592 295.995 417.701 295.704 418.792 295.358C419.828 294.532 420.865 293.726 421.854 292.834C423.043 291.768 424.127 290.593 425.089 289.326C425.089 289.279 425.224 289.326 425.176 289.383C423.658 291.391 421.941 293.248 420.049 294.926C420.587 294.72 421.115 294.504 421.643 294.27C425.947 292.387 429.64 289.386 432.318 285.593C432.318 285.537 432.452 285.593 432.414 285.649C430.136 288.904 427.195 291.663 423.774 293.754C422.063 294.799 420.233 295.645 418.321 296.277C416.101 296.949 413.837 297.472 411.544 297.843C409.297 298.2 407.08 298.714 404.91 299.382C402.912 300.044 401.033 301.009 399.342 302.243C396.153 304.664 393.584 307.775 391.835 311.332C389.59 316.067 388.191 321.143 387.697 326.34C387.697 326.556 387.332 326.556 387.342 326.34C387.928 317.691 390.289 308.734 397.076 302.768Z" fill="#263238"/>
<path d="M411.61 296.089C412.263 295.135 413.147 294.352 414.183 293.81C415.371 293.204 416.414 292.36 417.245 291.333C417.245 291.277 417.38 291.333 417.332 291.39C416.58 292.325 415.667 293.125 414.634 293.753C413.497 294.345 412.495 295.156 411.687 296.136C411.648 296.183 411.572 296.136 411.61 296.089Z" fill="#263238"/>
<path d="M404.957 317.87L404.391 329.126L402.643 363.503H376.368L374.621 329.126L374.055 317.87H404.957Z" fill="#37474F"/>
<path d="M404.957 317.87L404.391 329.126H374.621L374.055 317.87H404.957Z" fill="#263238"/>
<path d="M406.8 313.17H372.211V323.91H406.8V313.17Z" fill="#37474F"/>
<path d="M40.5312 363.503L90.3937 363.278L140.266 363.194L240 363.034L339.734 363.194L389.606 363.278L439.469 363.503L389.606 363.738L339.734 363.822L240 363.972L140.266 363.813L90.3937 363.738L40.5312 363.503Z" fill="#263238"/>
<path d="M360.213 388.576V61.6548C360.213 54.9772 354.673 49.564 347.838 49.564L132.174 49.564C125.34 49.564 119.8 54.9772 119.8 61.6548L119.8 388.576C119.8 395.254 125.34 400.667 132.174 400.667H347.838C354.673 400.667 360.213 395.254 360.213 388.576Z" fill="#263238"/>
<path d="M350.064 74.1396H130.215V376.307H350.064V74.1396Z" fill="white"/>
<path d="M266.15 64.4783V63.1745C266.15 62.5269 265.613 62.002 264.95 62.002H215.03C214.368 62.002 213.83 62.5269 213.83 63.1745V64.4783C213.83 65.1258 214.368 65.6508 215.03 65.6508H264.95C265.613 65.6508 266.15 65.1258 266.15 64.4783Z" fill="#37474F"/>
<path d="M240 394.795C243.738 394.795 246.768 391.834 246.768 388.182C246.768 384.53 243.738 381.569 240 381.569C236.263 381.569 233.232 384.53 233.232 388.182C233.232 391.834 236.263 394.795 240 394.795Z" fill="#37474F"/>
<path d="M316.196 115.637H164.094V117.728H316.196V115.637Z" fill="#EBEBEB"/>
<path d="M316.196 122.127H164.094V124.219H316.196V122.127Z" fill="#EBEBEB"/>
<path d="M316.196 319.792H164.094V321.884H316.196V319.792Z" fill="#EBEBEB"/>
<path d="M316.196 326.283H164.094V328.375H316.196V326.283Z" fill="#EBEBEB"/>
<path d="M201.072 348.805C204.953 348.805 208.099 345.731 208.099 341.938C208.099 338.146 204.953 335.072 201.072 335.072C197.191 335.072 194.045 338.146 194.045 341.938C194.045 345.731 197.191 348.805 201.072 348.805Z" fill="#FFDF27"/>
<path d="M201.188 345.944L197.002 341.807L198.413 340.447L200.852 342.867L205.94 335.082L207.6 336.123L201.188 345.944Z" fill="white"/>
<path d="M218.67 341.882C218.675 341.389 218.765 340.9 218.939 340.438C219.117 339.966 219.387 339.532 219.736 339.162C220.106 338.752 220.563 338.427 221.076 338.208C221.588 337.99 222.143 337.883 222.702 337.896C223.376 337.884 224.04 338.053 224.622 338.383C225.144 338.679 225.567 339.116 225.841 339.64L224.641 340.494C224.546 340.282 224.412 340.088 224.248 339.922C224.103 339.778 223.938 339.655 223.758 339.556C223.581 339.468 223.394 339.402 223.201 339.359C223.015 339.322 222.825 339.303 222.635 339.303C222.275 339.293 221.918 339.374 221.598 339.537C221.309 339.685 221.057 339.893 220.859 340.147C220.661 340.403 220.512 340.692 220.417 341C220.2 341.64 220.2 342.331 220.417 342.97C220.524 343.285 220.69 343.578 220.907 343.833C221.119 344.078 221.376 344.282 221.665 344.433C221.962 344.582 222.292 344.659 222.625 344.659C222.82 344.655 223.013 344.63 223.201 344.583C223.4 344.543 223.591 344.473 223.768 344.377C223.95 344.274 224.118 344.148 224.267 344.002C224.424 343.837 224.551 343.647 224.641 343.439L225.937 344.171C225.809 344.47 225.619 344.742 225.381 344.968C225.14 345.198 224.865 345.391 224.564 345.54C223.954 345.861 223.271 346.028 222.577 346.028C222.022 346.032 221.473 345.91 220.974 345.672C220.5 345.44 220.077 345.122 219.726 344.734C219.377 344.346 219.1 343.902 218.91 343.42C218.728 342.928 218.646 342.405 218.67 341.882Z" fill="#FFDF27"/>
<path d="M230.478 345.991C229.914 345.999 229.356 345.88 228.846 345.643C227.892 345.193 227.153 344.4 226.782 343.43C226.592 342.955 226.494 342.449 226.494 341.938C226.494 341.414 226.598 340.895 226.801 340.409C226.997 339.932 227.28 339.493 227.637 339.115C227.997 338.726 228.431 338.407 228.913 338.177C229.417 337.956 229.964 337.844 230.517 337.849C231.076 337.839 231.629 337.961 232.129 338.205C232.608 338.433 233.036 338.752 233.387 339.143C233.755 339.537 234.045 339.996 234.241 340.494C234.43 340.966 234.528 341.469 234.529 341.976C234.53 342.5 234.425 343.02 234.222 343.505C234.034 343.981 233.754 344.417 233.397 344.79C233.037 345.162 232.607 345.461 232.129 345.672C231.611 345.9 231.046 346.009 230.478 345.991ZM228.107 341.938C228.108 342.279 228.163 342.618 228.27 342.942C228.371 343.251 228.527 343.54 228.731 343.796C228.939 344.04 229.193 344.244 229.48 344.396C229.793 344.546 230.139 344.62 230.488 344.612C230.844 344.618 231.196 344.541 231.515 344.387C231.804 344.234 232.058 344.027 232.264 343.777C232.466 343.516 232.621 343.225 232.725 342.914C232.82 342.61 232.871 342.294 232.878 341.976C232.879 341.634 232.821 341.295 232.705 340.972C232.603 340.662 232.444 340.373 232.235 340.119C232.036 339.867 231.78 339.665 231.486 339.528C231.188 339.383 230.859 339.309 230.526 339.312C230.173 339.305 229.824 339.383 229.509 339.537C229.213 339.679 228.956 339.888 228.76 340.147C228.556 340.403 228.4 340.692 228.299 341C228.187 341.302 228.122 341.618 228.107 341.938Z" fill="#FFDF27"/>
<path d="M237.283 340.813V345.935H235.699V337.943H236.928L241.19 343.186V337.952H242.784V345.935H241.488L237.283 340.813Z" fill="#FFDF27"/>
<path d="M244.484 345.935V337.943H249.985V339.303H246.078V341.367H249.323V342.623H246.078V345.935H244.484Z" fill="#FFDF27"/>
<path d="M251.098 345.935V337.943H252.691V345.935H251.098Z" fill="#FFDF27"/>
<path d="M254.4 345.934V337.942H258.02C258.381 337.939 258.739 338.016 259.066 338.168C259.376 338.322 259.655 338.529 259.892 338.777C260.117 339.031 260.299 339.32 260.429 339.631C260.554 339.929 260.619 340.247 260.621 340.569C260.63 341.068 260.493 341.559 260.228 341.985C259.982 342.403 259.605 342.732 259.152 342.923L261.015 345.934H259.2L257.53 343.252H255.965V345.934H254.4ZM255.994 341.891H257.991C258.132 341.895 258.272 341.859 258.394 341.788C258.522 341.722 258.633 341.629 258.72 341.516C258.82 341.394 258.895 341.254 258.941 341.104C258.999 340.941 259.029 340.769 259.028 340.597C259.026 340.421 258.994 340.246 258.932 340.081C258.875 339.93 258.791 339.79 258.682 339.668C258.582 339.557 258.461 339.465 258.327 339.396C258.199 339.334 258.057 339.301 257.914 339.303H255.994V341.891Z" fill="#FFDF27"/>
<path d="M268.723 345.935V340.644L266.621 344.584H265.757L263.645 340.644V345.935H262.08V337.943H263.789L266.208 342.492L268.646 337.943H270.346V345.935H268.723Z" fill="#FFDF27"/>
<path d="M277.701 344.575V345.935H272.018V337.943H277.595V339.303H273.602V341.179H277.048V342.445H273.602V344.528L277.701 344.575Z" fill="#FFDF27"/>
<path d="M278.947 345.934V337.943H281.914C282.516 337.928 283.114 338.037 283.67 338.262C284.152 338.451 284.585 338.743 284.938 339.115C285.278 339.481 285.536 339.913 285.696 340.382C286.048 341.42 286.048 342.542 285.696 343.58C285.52 344.05 285.244 344.477 284.884 344.833C284.525 345.189 284.091 345.466 283.613 345.644C283.08 345.845 282.513 345.944 281.942 345.934H278.947ZM284.342 341.929C284.35 341.569 284.295 341.211 284.179 340.869C284.085 340.562 283.925 340.277 283.709 340.034C283.501 339.799 283.242 339.613 282.95 339.49C282.621 339.363 282.268 339.299 281.914 339.303H280.531V344.574H281.914C282.273 344.578 282.63 344.508 282.96 344.368C283.252 344.241 283.511 344.052 283.718 343.815C283.928 343.566 284.084 343.279 284.179 342.97C284.294 342.635 284.349 342.283 284.342 341.929Z" fill="#FFDF27"/>
<path d="M300.134 305.225H179.865V205.816L239.99 168.502L300.134 205.816V305.225Z" fill="#FFDF27"/>
<path opacity="0.2" d="M300.134 305.225H179.865V205.816L239.99 168.502L300.134 205.816V305.225Z" fill="black"/>
<path d="M293.347 163.775H186.643V297.618H293.347V163.775Z" fill="#EBEBEB"/>
<path d="M233.5 243.852L209.068 219.689L217.276 211.763L231.552 225.88L261.196 180.462L270.931 186.521L233.5 243.852Z" fill="#FFDF27"/>
<path d="M300.134 230.748V305.225H179.865V230.748C185.03 233.562 190.108 236.601 195.225 239.528C200.342 242.454 205.411 245.493 210.47 248.533C216.105 251.881 221.74 255.295 227.356 258.729L227.539 258.625C227.481 258.625 227.443 258.719 227.395 258.747C231.593 261.28 235.795 263.828 240 266.392C244.185 263.813 248.4 261.214 252.604 258.672C252.556 258.672 252.518 258.588 252.46 258.55C252.517 258.589 252.578 258.62 252.643 258.644C258.256 255.224 263.884 251.822 269.529 248.439C274.592 245.418 279.667 242.423 284.755 239.453C289.92 236.554 294.969 233.562 300.134 230.748Z" fill="#FFDF27"/>
<g opacity="0.2">
<path d="M300.134 230.748C295.276 234.078 290.332 237.314 285.436 240.56C280.54 243.805 275.558 246.975 270.585 250.155C265.401 253.476 260.208 256.765 255.004 260.023L254.534 260.342L240.681 268.972L239.99 269.375L239.318 268.972L225.484 260.323L224.995 260.023C219.779 256.759 214.579 253.463 209.395 250.137C204.441 246.975 199.497 243.767 194.563 240.56C189.628 237.352 184.723 234.031 179.865 230.748C185.03 233.562 190.108 236.601 195.225 239.528C200.342 242.454 205.411 245.493 210.47 248.533C216.105 251.881 221.74 255.295 227.356 258.729C231.58 261.274 235.795 263.828 240 266.392C244.185 263.813 248.4 261.214 252.604 258.672C258.217 255.252 263.846 251.85 269.491 248.467C274.553 245.447 279.628 242.451 284.716 239.481C289.92 236.554 294.969 233.562 300.134 230.748Z" fill="black"/>
<path d="M227.52 258.579C227.463 258.579 227.424 258.672 227.376 258.701L225.456 260.276C222.442 262.762 219.351 265.145 216.211 267.461C212.371 270.275 208.464 273.089 204.528 275.772C200.592 278.455 196.599 281.081 192.528 283.623C188.458 286.165 184.368 288.651 180.125 290.93C183.773 287.807 187.565 284.89 191.395 282.057C195.226 279.224 199.162 276.429 203.079 273.737C206.995 271.045 211.027 268.409 215.088 265.867C218.323 263.841 221.616 261.843 224.967 259.976C225.744 259.535 226.522 259.113 227.319 258.682L227.52 258.579Z" fill="black"/>
<path d="M299.847 290.93C295.604 288.651 291.485 286.165 287.444 283.623C283.402 281.081 279.36 278.436 275.424 275.772C271.488 273.108 267.572 270.313 263.741 267.461C260.621 265.145 257.53 262.771 254.535 260.295L252.615 258.701C252.567 258.701 252.528 258.616 252.471 258.579C252.527 258.617 252.589 258.649 252.653 258.672C253.45 259.113 254.228 259.535 255.005 259.976C258.356 261.852 261.629 263.841 264.884 265.867C268.944 268.409 272.919 271.054 276.874 273.737C280.829 276.419 284.727 279.196 288.557 282.057C292.388 284.918 296.199 287.807 299.847 290.93Z" fill="black"/>
</g>
<path d="M188.544 157.396C187.904 152.241 187.904 147.028 188.544 141.873C189.184 147.028 189.184 152.241 188.544 157.396Z" fill="#263238"/>
<path d="M181.787 159.863C179.682 158.277 177.691 156.553 175.825 154.704C173.93 152.887 172.166 150.944 170.545 148.889C174.729 152.093 178.504 155.778 181.787 159.863Z" fill="#263238"/>
<path d="M178.8 166.27C176.165 166.604 173.509 166.76 170.851 166.739C168.197 166.768 165.544 166.614 162.912 166.279C165.544 165.941 168.197 165.784 170.851 165.81C173.509 165.786 176.164 165.939 178.8 166.27Z" fill="#263238"/>
<path d="M181.326 172.864C178.043 176.949 174.272 180.637 170.094 183.848C173.369 179.753 177.141 176.062 181.326 172.854V172.864Z" fill="#263238"/>
<path d="M290.736 157.396C290.402 154.821 290.245 152.226 290.265 149.63C290.246 147.036 290.41 144.444 290.755 141.873C291.395 147.028 291.395 152.241 290.755 157.396H290.736Z" fill="#263238"/>
<path d="M297.494 159.863C300.777 155.778 304.551 152.093 308.736 148.889C307.115 150.944 305.351 152.887 303.456 154.704C301.59 156.553 299.598 158.277 297.494 159.863Z" fill="#263238"/>
<path d="M300.48 166.27C303.116 165.939 305.772 165.786 308.429 165.81C311.084 165.784 313.737 165.941 316.368 166.279C313.736 166.615 311.083 166.768 308.429 166.739C305.772 166.761 303.116 166.604 300.48 166.27Z" fill="#263238"/>
<path d="M297.955 172.864C302.14 176.069 305.911 179.757 309.187 183.848C307.086 182.258 305.098 180.532 303.235 178.68C301.341 176.862 299.576 174.919 297.955 172.864Z" fill="#263238"/>
<path d="M162.518 428.779C160.444 429.435 101.375 428.685 99.1578 427.259C98.3034 426.734 97.9098 418.32 97.737 408.133V407.814C97.737 405.722 97.6698 403.556 97.6602 401.37C97.6602 401.07 97.6602 400.77 97.6602 400.432L100.54 370.491L140.054 370.876L136.147 400.535V401.708L135.907 407.842V408.48C135.907 408.48 158.39 418.648 160.675 420.468C162.959 422.288 164.582 428.141 162.518 428.779Z" fill="#F7A9A0"/>
<path d="M162.518 428.778C160.444 429.435 101.375 428.685 99.1578 427.259C98.3034 426.734 97.9098 418.32 97.737 408.133V407.814C97.737 405.722 97.6698 403.556 97.6602 401.37C97.6602 401.07 97.6602 400.77 97.6602 400.432L136.137 400.535V401.708L135.897 407.842V408.48C135.897 408.48 158.38 418.648 160.665 420.468C162.95 422.288 164.582 428.141 162.518 428.778Z" fill="#EBEBEB"/>
<path d="M162.691 428.919C160.598 429.576 100.992 429.023 98.7359 427.597C97.8719 427.062 97.4495 418.573 97.2383 408.302L135.638 408.555C135.638 408.555 158.361 418.742 160.675 420.562C162.989 422.382 164.774 428.253 162.691 428.919Z" fill="#FFDF27"/>
<path d="M161.857 426.584C151.873 426.246 111.543 425.824 101.645 426.237C101.569 426.237 101.569 426.293 101.645 426.302C111.543 426.837 151.863 426.94 161.857 426.743C162.068 426.734 162.068 426.584 161.857 426.584Z" fill="#263238"/>
<path d="M156.882 418.432C155.772 418.396 154.667 418.584 153.634 418.984C152.602 419.384 151.665 419.989 150.882 420.759C149.469 422.142 148.651 424.001 148.598 425.955C148.598 426.011 148.713 426.011 148.722 425.955C149.079 424.025 150.068 422.26 151.539 420.925C153.011 419.591 154.886 418.759 156.882 418.554C156.893 418.558 156.904 418.56 156.915 418.559C156.926 418.558 156.936 418.554 156.945 418.548C156.954 418.542 156.962 418.534 156.967 418.524C156.972 418.515 156.975 418.504 156.975 418.493C156.975 418.483 156.972 418.472 156.967 418.463C156.962 418.453 156.954 418.445 156.945 418.439C156.936 418.433 156.926 418.429 156.915 418.428C156.904 418.427 156.893 418.428 156.882 418.432Z" fill="#263238"/>
<path d="M139.536 409.568C135.532 409.474 130.896 410.806 128.371 413.977C128.275 414.108 128.457 414.239 128.572 414.174C132.089 412.419 135.786 411.035 139.603 410.046C139.66 410.03 139.71 409.994 139.743 409.945C139.776 409.896 139.79 409.837 139.781 409.779C139.773 409.721 139.744 409.667 139.699 409.629C139.654 409.59 139.596 409.568 139.536 409.568Z" fill="#263238"/>
<path d="M142.608 410.769C138.614 410.675 133.968 412.017 131.443 415.187C131.347 415.309 131.529 415.44 131.645 415.384C135.159 413.624 138.857 412.237 142.675 411.248C142.733 411.231 142.783 411.196 142.815 411.146C142.848 411.097 142.862 411.038 142.854 410.98C142.846 410.922 142.816 410.868 142.771 410.83C142.726 410.791 142.668 410.77 142.608 410.769Z" fill="#263238"/>
<path d="M145.689 411.97C141.686 411.885 137.049 413.217 134.524 416.388C134.428 416.509 134.601 416.65 134.726 416.585C138.239 414.831 141.934 413.448 145.746 412.457C145.8 412.437 145.846 412.4 145.876 412.352C145.906 412.304 145.918 412.248 145.912 412.192C145.905 412.136 145.88 412.083 145.839 412.043C145.799 412.003 145.746 411.977 145.689 411.97Z" fill="#263238"/>
<path d="M148.799 413.18C144.806 413.086 140.159 414.427 137.634 417.598C137.538 417.72 137.721 417.851 137.836 417.795C141.329 416.039 145.005 414.652 148.799 413.658C148.856 413.647 148.907 413.617 148.943 413.574C148.98 413.53 149 413.475 149 413.419C149 413.363 148.98 413.308 148.943 413.264C148.907 413.221 148.856 413.191 148.799 413.18Z" fill="#263238"/>
<path d="M104.284 416.988C99.7913 416.988 99.7433 423.77 104.284 423.798C108.825 423.826 108.777 417.016 104.284 416.988Z" fill="white"/>
<path d="M144 399.175C141.994 397.515 139.421 399.1 138.164 400.789C136.035 403.728 134.737 407.164 134.4 410.75C134.4 410.825 134.458 410.863 134.525 410.863C134.54 410.936 134.572 411.005 134.619 411.064C134.666 411.123 134.727 411.17 134.796 411.201C134.866 411.232 134.942 411.247 135.018 411.244C135.095 411.24 135.169 411.219 135.236 411.182C138.116 409.306 141.408 407.599 143.597 404.907C144.864 403.34 145.863 400.751 144 399.175ZM139.008 407.439C137.626 408.377 136.196 409.315 134.852 410.319C135.519 408.359 136.288 406.434 137.156 404.55C137.593 403.644 138.09 402.767 138.644 401.924C139.527 400.639 143.444 397.412 143.837 401.671C144 404.016 140.621 406.285 138.97 407.439H139.008Z" fill="#263238"/>
<path d="M124.434 412.101C127.919 412.654 131.519 411.726 134.946 411.238C135.02 411.219 135.089 411.184 135.147 411.135C135.205 411.086 135.25 411.024 135.28 410.956C135.309 410.887 135.323 410.812 135.318 410.737C135.313 410.663 135.291 410.59 135.254 410.525C135.266 410.515 135.275 410.503 135.282 410.49C135.289 410.476 135.292 410.461 135.292 410.445C135.292 410.43 135.289 410.415 135.282 410.401C135.275 410.388 135.266 410.375 135.254 410.366C132.549 407.938 129.238 406.249 125.654 405.469C123.551 405.047 120.566 405.573 120.23 408.124C119.894 410.535 122.409 411.782 124.434 412.101ZM122.044 409.906C119.375 406.529 124.521 406.304 126.057 406.67C127.038 406.918 128 407.231 128.937 407.608C130.914 408.377 132.777 409.4 134.63 410.347C132.93 410.488 131.26 410.769 129.561 410.966C127.574 411.172 123.522 411.716 122.044 409.906Z" fill="#263238"/>
<path opacity="0.1" d="M128.928 429.013C114.115 428.76 99.8207 428.282 98.7359 427.597C97.8719 427.062 97.4495 418.573 97.2383 408.302H102.71C108.758 413.142 121.555 423.207 128.928 429.013Z" fill="black"/>
<path d="M138.432 408.03H95.8943C95.8943 408.03 104.458 310.956 104.122 309.259C103.699 307.082 101.184 297.262 97.8431 284.42C96.7967 280.406 95.6639 276.1 94.4927 271.635C91.3151 259.554 87.7727 246.356 84.7775 234.866C80.2079 217.663 76.6367 204.296 76.6367 204.296H112.685C112.685 204.296 116.89 217.306 122.189 234.247C130.829 261.758 142.349 299.635 143.482 308.846C145.325 323.694 138.432 408.03 138.432 408.03Z" fill="#37474F"/>
<path d="M136.551 400.92C130.052 400.789 131.914 400.742 125.415 400.676C122.237 400.676 101.348 400.47 98.3719 400.948C98.3541 400.948 98.337 400.955 98.3244 400.967C98.3118 400.98 98.3047 400.996 98.3047 401.014C98.3047 401.031 98.3118 401.048 98.3244 401.06C98.337 401.073 98.3541 401.079 98.3719 401.079C101.348 401.558 122.237 401.38 125.415 401.351C131.914 401.295 130.052 401.239 136.551 401.108C136.577 401.108 136.601 401.098 136.619 401.08C136.637 401.063 136.647 401.039 136.647 401.014C136.647 400.989 136.637 400.965 136.619 400.947C136.601 400.93 136.577 400.92 136.551 400.92Z" fill="#263238"/>
<path d="M112.127 303.302C110.735 297.299 108.642 291.408 106.828 285.48C103.142 273.505 99.4328 261.53 95.7016 249.555C93.8392 243.57 91.9704 237.586 90.0952 231.602C89.148 228.581 88.188 225.564 87.2152 222.55C86.2552 219.595 85.1896 216.678 84.3352 213.695C83.9896 212.485 83.7976 213.151 84.2488 214.689C85.1416 217.785 86.0248 220.89 86.956 223.985C88.78 230.113 90.6232 236.235 92.4856 242.351C96.172 254.526 99.8904 266.692 103.641 278.849C105.516 284.952 107.394 291.049 109.276 297.14C110.227 300.042 110.994 302.999 111.57 305.994C112.077 309.124 112.206 312.3 111.954 315.459C111.542 321.818 110.783 328.169 110.188 334.51C109.593 340.85 108.978 347.229 108.383 353.579C107.186 366.236 105.996 378.889 104.812 391.54C104.668 393.144 104.524 394.748 104.399 396.361C104.399 396.896 105.186 396.849 105.244 396.361C106.646 383.858 107.721 371.298 108.921 358.776C110.121 346.253 111.321 333.834 112.511 321.368C112.809 318.235 113.154 315.102 113.154 311.988C113.147 309.064 112.802 306.151 112.127 303.302Z" fill="#263238"/>
<path d="M108.595 204.278C106.09 223.197 101.318 258.682 97.8431 284.402C89.7119 253.26 76.6367 204.278 76.6367 204.278H108.595Z" fill="#263238"/>
<path d="M117.446 429.341C115.382 429.998 56.3129 429.463 54.0857 428.047C53.2313 427.522 52.8089 419.108 52.5977 408.921V408.602C52.5497 406.51 52.5113 404.344 52.5017 402.158C52.5017 401.858 52.5017 401.558 52.5017 401.22C52.3673 386.531 53.4617 371.289 53.4617 371.289L92.0729 371.532L90.9881 401.192V402.365L90.7769 408.508V409.137C90.7769 409.137 113.193 419.286 115.478 421.068C117.762 422.85 119.519 428.666 117.446 429.341Z" fill="#F7A9A0"/>
<path d="M117.446 429.341C115.382 429.998 56.3132 429.463 54.086 428.047C53.2316 427.522 52.8092 419.108 52.598 408.921V408.602C52.55 406.511 52.5116 404.344 52.502 402.158C52.502 401.858 52.502 401.558 52.502 401.22H90.9788V402.393L90.7676 408.537V409.165C90.7676 409.165 113.193 419.286 115.478 421.068C117.763 422.85 119.52 428.666 117.446 429.341Z" fill="#EBEBEB"/>
<path d="M117.685 429.219C115.592 429.876 55.986 429.322 53.73 427.897C52.866 427.362 52.4436 418.873 52.2324 408.602L90.6324 408.855C90.6324 408.855 113.356 419.042 115.66 420.862C117.964 422.681 119.768 428.553 117.685 429.219Z" fill="#FFDF27"/>
<path d="M116.851 426.884C106.857 426.546 66.5372 426.124 56.6396 426.537C56.5628 426.537 56.5628 426.593 56.6396 426.593C66.5276 427.137 106.857 427.24 116.851 427.043C117.062 427.034 117.062 426.884 116.851 426.884Z" fill="#263238"/>
<path d="M111.879 418.733C110.768 418.696 109.662 418.883 108.63 419.284C107.597 419.684 106.661 420.288 105.879 421.059C104.462 422.44 103.644 424.301 103.594 426.255C103.594 426.312 103.709 426.312 103.719 426.255C104.075 424.325 105.064 422.56 106.535 421.225C108.007 419.891 109.882 419.059 111.879 418.855C111.891 418.85 111.902 418.841 111.909 418.83C111.917 418.82 111.921 418.807 111.921 418.794C111.921 418.78 111.917 418.768 111.909 418.757C111.902 418.746 111.891 418.737 111.879 418.733Z" fill="#263238"/>
<path d="M94.5306 409.906C90.5274 409.822 85.8906 411.154 83.3658 414.324C83.2698 414.446 83.4426 414.587 83.5674 414.521C87.0836 412.766 90.7813 411.383 94.5978 410.394C94.6519 410.373 94.6973 410.335 94.7268 410.286C94.7563 410.238 94.7681 410.18 94.7603 410.124C94.7526 410.068 94.7257 410.016 94.6841 409.976C94.6424 409.937 94.5883 409.912 94.5306 409.906Z" fill="#263238"/>
<path d="M97.6039 411.069C93.6103 410.975 88.9639 412.307 86.4391 415.487C86.3431 415.609 86.5255 415.74 86.6407 415.684C90.1555 413.924 93.8535 412.537 97.6711 411.547C97.7288 411.531 97.7787 411.495 97.8116 411.446C97.8444 411.397 97.858 411.338 97.8498 411.28C97.8416 411.222 97.8123 411.168 97.7671 411.13C97.7219 411.091 97.664 411.069 97.6039 411.069Z" fill="#263238"/>
<path d="M100.685 412.27C96.6815 412.176 92.0447 413.517 89.5199 416.688C89.4143 416.81 89.5967 416.941 89.7215 416.885C93.2326 415.126 96.9276 413.742 100.742 412.757C100.796 412.737 100.842 412.7 100.872 412.652C100.902 412.604 100.914 412.548 100.908 412.492C100.901 412.436 100.876 412.384 100.835 412.343C100.795 412.303 100.742 412.277 100.685 412.27Z" fill="#263238"/>
<path d="M103.756 413.48C99.753 413.386 95.1162 414.718 92.5914 417.898C92.4954 418.02 92.6778 418.151 92.793 418.095C96.3071 416.333 100.005 414.946 103.823 413.958C103.881 413.942 103.931 413.906 103.964 413.857C103.997 413.808 104.01 413.749 104.002 413.69C103.994 413.632 103.965 413.579 103.919 413.54C103.874 413.502 103.816 413.48 103.756 413.48Z" fill="#263238"/>
<path d="M59.2802 417.288C54.7874 417.288 54.7394 424.07 59.2802 424.098C63.821 424.126 63.773 417.316 59.2802 417.288Z" fill="white"/>
<path d="M98.9566 399.475C96.9406 397.815 94.3774 399.4 93.1102 401.089C90.9964 404.029 89.7117 407.462 89.3854 411.041C89.3836 411.057 89.3857 411.073 89.3915 411.088C89.3973 411.103 89.4066 411.117 89.4187 411.128C89.4309 411.139 89.4455 411.147 89.4614 411.151C89.4772 411.156 89.494 411.156 89.5102 411.153C89.5232 411.228 89.5544 411.298 89.601 411.358C89.6476 411.418 89.7083 411.466 89.778 411.498C89.8477 411.53 89.9243 411.545 90.0014 411.543C90.0784 411.54 90.1536 411.519 90.2206 411.482C93.1006 409.606 96.3934 407.899 98.5822 405.197C99.8398 403.621 100.857 401.042 98.9566 399.475ZM93.9646 407.739C92.5822 408.677 91.1518 409.615 89.8078 410.609C90.4905 408.648 91.2755 406.723 92.1598 404.841C92.597 403.938 93.094 403.063 93.6478 402.224C94.531 400.939 98.4478 397.712 98.8414 401.961C98.995 404.278 95.6158 406.585 93.9646 407.739Z" fill="#263238"/>
<path d="M79.4303 412.401C82.9055 412.954 86.5151 412.016 89.9327 411.538C90.005 411.52 90.0722 411.486 90.129 411.438C90.1858 411.391 90.2307 411.332 90.2604 411.265C90.29 411.198 90.3036 411.125 90.3 411.052C90.2965 410.979 90.2759 410.908 90.2399 410.844C90.2537 410.834 90.265 410.822 90.2729 410.807C90.2807 410.792 90.2847 410.776 90.2847 410.76C90.2847 410.743 90.2807 410.727 90.2729 410.712C90.265 410.697 90.2537 410.685 90.2399 410.675C87.5316 408.253 84.2221 406.565 80.6399 405.779C78.5375 405.366 75.5519 405.891 75.2159 408.443C74.8799 410.844 77.4047 412.073 79.4303 412.401ZM77.0399 410.15C74.3711 406.773 79.5167 406.557 81.0527 406.923C82.0336 407.171 82.9958 407.484 83.9327 407.861C85.8733 408.679 87.7702 409.594 89.6159 410.6C87.9167 410.741 86.2463 411.013 84.5567 411.219C82.5599 411.472 78.5183 412.016 77.0399 410.15Z" fill="#263238"/>
<path d="M111.522 204.278C111.522 204.278 110.687 221.162 106.722 234.481C106.405 235.588 106.06 236.667 105.695 237.708C102.081 239.142 98.6073 240.894 95.3175 242.942C95.3175 242.942 94.9047 256.496 94.4919 271.626C94.0311 288.51 93.5319 307.383 93.6471 311.388C94.0119 326.396 91.7271 408.631 91.7271 408.631L49.1895 408.799C49.1895 408.799 56.8695 316.875 56.8695 311.426C56.7831 302.618 58.9239 263.672 60.5847 235.279C61.5447 217.776 62.4279 204.325 62.4279 204.325L111.522 204.278Z" fill="#37474F"/>
<path d="M90.2407 401.229C83.7415 401.126 85.6039 401.07 79.1143 401.032C75.9271 401.032 55.0375 400.92 52.0711 401.417C52.0533 401.417 52.0362 401.424 52.0236 401.436C52.011 401.449 52.0039 401.465 52.0039 401.483C52.0039 401.5 52.011 401.517 52.0236 401.529C52.0362 401.541 52.0533 401.548 52.0711 401.548C55.0375 402.017 75.9367 401.745 79.1143 401.708C85.6135 401.614 83.7415 401.576 90.2407 401.417C90.2662 401.417 90.2906 401.407 90.3086 401.39C90.3266 401.372 90.3367 401.348 90.3367 401.323C90.3367 401.298 90.3266 401.274 90.3086 401.257C90.2906 401.239 90.2662 401.229 90.2407 401.229Z" fill="#263238"/>
<path d="M65.9706 210.3C65.1834 233.487 64.3578 256.674 63.2922 279.843C62.2266 303.011 60.7962 326.349 58.809 349.536C57.6954 362.499 56.6394 380.734 55.209 393.622C55.209 393.707 55.3338 393.744 55.353 393.622C58.4442 370.623 60.153 342.192 61.6986 319.042C63.2442 295.892 64.2522 272.723 65.0586 249.555C65.5194 236.423 65.865 223.291 66.2682 210.215C66.2394 210.112 65.9802 210.112 65.9706 210.3Z" fill="#263238"/>
<path d="M107.52 236.704C103.276 238.435 99.1935 240.522 95.3181 242.942C95.2917 242.962 95.2734 242.991 95.2666 243.024C95.2598 243.056 95.2649 243.09 95.2809 243.119C95.2969 243.148 95.3229 243.17 95.3543 243.183C95.3856 243.195 95.4204 243.196 95.4525 243.186C99.5517 241.235 103.737 239.359 107.731 237.192C107.782 237.156 107.818 237.104 107.835 237.045C107.852 236.986 107.848 236.923 107.823 236.866C107.799 236.81 107.755 236.763 107.7 236.734C107.645 236.704 107.582 236.694 107.52 236.704Z" fill="#263238"/>
<path d="M107.722 222.409C107.434 223.882 107.069 225.345 106.762 226.818C106.455 228.291 106.234 229.632 105.86 230.964C105.55 232.28 104.864 233.484 103.882 234.434C103.335 234.932 102.721 235.372 102.135 235.841L101.175 236.582C101.175 236.385 101.261 236.188 101.29 235.982C101.396 235.419 101.492 234.866 101.588 234.303C101.799 233.056 102.001 231.808 102.202 230.551C102.586 228.094 102.932 225.617 103.46 223.197C103.46 223.094 103.325 223.056 103.306 223.197C102.682 225.598 101.991 227.972 101.444 230.401C101.175 231.592 100.225 237.464 100.186 237.905C100.148 238.346 100.1 238.768 100.09 239.199C100.027 239.635 100.027 240.077 100.09 240.513C100.09 240.625 100.244 240.606 100.292 240.513C100.479 240.107 100.608 239.677 100.676 239.237C100.791 238.824 100.887 238.393 100.964 237.971C100.964 237.821 100.964 237.661 101.031 237.502C101.626 237.155 102.173 236.686 102.73 236.292C103.287 235.898 103.94 235.457 104.497 234.997C105.508 234.12 106.227 232.966 106.561 231.686C106.926 230.303 107.164 228.89 107.271 227.465C107.463 225.795 107.597 224.116 107.837 222.456C107.895 222.306 107.741 222.306 107.722 222.409Z" fill="#263238"/>
<path d="M92.1602 166.092C95.453 175.781 110.199 206.585 116.391 208.742C122.842 210.975 147.754 213.761 153.283 209.512C155.991 207.42 156.931 185.124 153.283 185.686C149.635 186.249 127.671 187.028 125.059 186.118C122.448 185.208 105.005 160.398 97.9202 154.357C85.6994 143.992 90.4034 160.867 92.1602 166.092Z" fill="#F7A9A0"/>
<path d="M147.773 185.311L147.418 213.067C147.418 213.067 121.872 213.132 115.066 209.634C108.259 206.135 93.8592 174.065 90.2592 161.796C86.6592 149.527 92.4192 147.632 101.568 156.637C110.717 165.641 124.474 184.514 126.106 184.899C127.738 185.283 147.773 185.311 147.773 185.311Z" fill="#FFDF27"/>
<path d="M113.683 170.35C108.426 171.212 103.337 172.857 98.5914 175.228L97.7274 175.668C97.5066 175.772 97.2954 175.884 97.0842 176.006C96.6618 176.222 96.249 176.447 95.8362 176.691L95.6538 176.241L96.5274 175.744L97.161 175.415C97.5546 175.199 97.9578 174.984 98.361 174.787C100.798 173.551 103.338 172.522 105.955 171.71C108.376 170.944 110.854 170.357 113.366 169.956L113.683 170.35ZM119.385 177.357C118.932 177.589 118.467 177.799 117.993 177.985C116.767 178.49 115.474 178.825 114.153 178.98C113.481 179.055 112.809 179.167 112.137 179.205L110.111 179.261C107.401 179.189 104.727 178.636 102.22 177.629C100.713 177.057 99.2442 176.363 97.7754 175.668C97.5834 175.593 97.401 175.5 97.209 175.415C96.7482 175.209 96.249 174.993 95.817 174.796L95.3658 174.609L94.9434 174.43L95.1066 174.824C95.1066 174.937 95.2026 175.049 95.241 175.162H95.3274L96.5658 175.706L97.1226 175.969C98.7162 176.71 100.319 177.498 101.99 178.135C104.564 179.17 107.31 179.739 110.092 179.814L112.166 179.768C112.857 179.768 113.548 179.608 114.23 179.533C115.616 179.377 116.973 179.033 118.262 178.511C118.796 178.305 119.319 178.07 119.827 177.807L119.385 177.357ZM109.555 165.407C107.758 166.221 106.011 167.135 104.323 168.146C101.145 170.056 98.1336 172.217 95.3178 174.609L95.0586 174.824C95.0586 174.937 95.1546 175.049 95.193 175.162V175.237C95.193 175.237 95.193 175.237 95.2506 175.237C95.4138 175.096 95.5674 174.956 95.7306 174.834C98.4967 172.531 101.447 170.448 104.553 168.605C106.274 167.599 108.046 166.679 109.862 165.848L109.555 165.407Z" fill="white"/>
<path d="M140.333 199.015C140.333 196.811 140.496 188.022 140.698 185.883H140.765C140.986 188.003 141.101 196.68 141.091 198.884C141.165 203.267 140.995 207.651 140.582 212.016C140.577 212.03 140.567 212.043 140.554 212.051C140.541 212.06 140.526 212.065 140.51 212.065C140.495 212.065 140.479 212.06 140.467 212.051C140.454 212.043 140.444 212.03 140.438 212.016C140.102 207.692 140.285 203.349 140.333 199.015Z" fill="#263238"/>
<path opacity="0.1" d="M90.2405 161.786C93.8405 174.065 108.241 206.126 115.047 209.624C118.311 211.303 125.876 212.166 132.874 212.598L92.7845 151.018C89.3573 150.662 88.0613 154.292 90.2405 161.786Z" fill="black"/>
<path d="M57.9636 229.313C58.1172 229.463 120.44 225.298 120.959 224.623C121.688 223.685 101.96 161.777 97.0164 152.725C94.914 148.851 84.834 148.289 80.85 151.956C70.8756 161.12 63.9348 190.752 62.4756 199.635C60.0564 214.286 57.4068 228.778 57.9636 229.313Z" fill="#FFDF27"/>
<path d="M117.628 212.307L115.881 211.303C113.526 209.963 111.1 208.745 108.614 207.654L107.25 207.073L106.588 206.81C104.752 206.069 102.87 205.443 100.953 204.934C98.3329 204.22 95.6484 203.755 92.9369 203.546C87.4955 203.315 82.0507 203.917 76.7993 205.328L75.8393 205.591C75.5993 205.647 75.3689 205.713 75.1385 205.788C71.4794 206.881 67.9238 208.28 64.5113 209.971C63.5513 210.412 62.5913 210.909 61.7081 211.369L61.4201 211.519L60.3641 212.072L60.4505 211.594L61.5353 211.05C62.6105 210.478 63.6953 209.924 64.7897 209.408C65.6921 208.958 66.6137 208.536 67.5353 208.133C69.8534 207.094 72.2319 206.189 74.6585 205.422L75.3593 205.225C75.7913 205.084 76.2233 204.962 76.6649 204.85C79.3095 204.123 82.0143 203.624 84.7481 203.358C87.4768 203.069 90.2253 203 92.9657 203.152C97.7856 203.554 102.508 204.71 106.953 206.576L107.606 206.857L108.748 207.354C111.238 208.475 113.664 209.728 116.015 211.106L117.513 211.969L117.628 212.307ZM114.402 201.989C112.809 202.927 111.254 203.865 109.708 204.859C108.748 205.441 107.874 206.032 106.953 206.604L106.588 206.838C105.33 207.626 104.054 208.386 102.748 209.099C100.411 210.434 97.8648 211.384 95.2121 211.913C93.8872 212.161 92.5333 212.227 91.1897 212.11C90.5177 212.044 89.8361 212.025 89.1737 211.932L87.1769 211.585C84.5402 210.968 82.0392 209.89 79.7945 208.405C78.4409 207.542 77.1545 206.529 75.8489 205.591L75.3497 205.225C74.9465 204.925 74.5337 204.625 74.1209 204.343L73.7273 204.062L73.1513 203.677C70.8645 202.086 68.1517 201.183 65.3465 201.079C64.2397 201.099 63.1462 201.319 62.1209 201.726L62.0345 202.233C63.0819 201.806 64.2024 201.577 65.3369 201.557C68.0401 201.684 70.6463 202.581 72.8345 204.137L73.1705 204.362L73.5641 204.634C73.9289 204.887 74.2937 205.15 74.6489 205.422L75.1481 205.788C76.5593 206.838 77.9609 207.926 79.4681 208.883C81.7667 210.41 84.3299 211.516 87.0329 212.147L89.0873 212.513C89.7689 212.607 90.4601 212.635 91.1513 212.701C92.5428 212.818 93.9442 212.752 95.3177 212.504C98.0248 211.957 100.62 210.974 102.998 209.596C104.428 208.808 105.82 207.954 107.193 207.073L107.548 206.857L109.967 205.309C111.465 204.371 112.982 203.433 114.518 202.495L114.402 201.989ZM113.346 198.668C111.679 198.142 109.984 197.703 108.268 197.355C105.567 196.821 102.815 196.576 100.06 196.623C97.3043 196.674 94.5582 196.956 91.8521 197.468C89.1477 197.966 86.4869 198.668 83.8937 199.569C80.3865 200.8 76.9894 202.312 73.7369 204.09C73.5449 204.184 73.3625 204.287 73.1801 204.39C71.8169 205.131 70.4825 205.9 69.1577 206.698C67.6889 207.579 66.2297 208.489 64.7897 209.408C63.6665 210.112 62.5529 210.834 61.4393 211.547L60.3641 212.232C60.3641 212.382 60.3161 212.523 60.2969 212.663C61.7177 211.782 63.1193 210.881 64.5305 209.999C65.4905 209.371 66.5273 208.742 67.5353 208.123C68.1401 207.748 68.7449 207.382 69.3593 207.026C70.7417 206.21 72.1529 205.412 73.5737 204.653L74.1305 204.362C77.317 202.657 80.6399 201.208 84.0665 200.028C89.2096 198.239 94.6039 197.233 100.06 197.046C102.787 196.984 105.514 197.21 108.191 197.721C109.979 198.073 111.745 198.524 113.481 199.072C113.433 198.912 113.385 198.771 113.346 198.64V198.668Z" fill="white"/>
<path d="M72.4803 158.991C55.9395 176.813 37.2867 206.932 45.2643 213.395C52.5603 219.267 79.1715 213.677 95.9043 207.289C99.0915 206.069 86.1699 178.549 82.9251 180.181C79.5087 181.958 75.9818 183.524 72.3651 184.871C71.4051 185.115 76.4739 179.111 82.0803 164.685C87.7443 149.949 81.9363 148.795 72.4803 158.991Z" fill="#F7A9A0"/>
<path d="M123.581 178.098C123.581 181.297 115.526 180.668 115.526 180.668C116.701 181.415 117.57 182.54 117.984 183.848C118.589 186.202 115.104 188.172 115.104 188.172C116.15 189.198 116.862 190.504 117.149 191.924C117.494 194.232 114.269 196.717 114.269 196.717C114.696 198.191 114.566 199.766 113.904 201.154C111.984 204.803 105.533 204.906 101.549 205.694C97.0848 206.703 92.712 208.064 88.4737 209.765L81.0625 181.015C81.0625 181.015 98.3425 170.988 103.143 171.213C107.194 171.485 123.562 173.202 123.581 178.098Z" fill="#F7A9A0"/>
<path d="M115.458 180.574C111.177 179.355 106.607 179.149 102.201 178.989C102.105 178.989 102.095 179.13 102.201 179.139C106.597 179.243 111.061 180.499 115.429 180.781C115.457 180.785 115.486 180.777 115.508 180.761C115.531 180.744 115.546 180.719 115.549 180.692C115.553 180.664 115.546 180.637 115.529 180.615C115.512 180.593 115.486 180.578 115.458 180.574Z" fill="#263238"/>
<path d="M114.96 187.882C113.96 187.698 112.94 187.644 111.926 187.722C110.851 187.722 109.776 187.769 108.701 187.816C106.544 187.91 104.393 188.06 102.249 188.266C102.153 188.266 102.144 188.416 102.249 188.416C104.4 188.322 106.55 188.257 108.691 188.247H111.917C112.931 188.329 113.952 188.297 114.96 188.154C114.986 188.142 115.009 188.122 115.024 188.098C115.04 188.074 115.049 188.046 115.049 188.018C115.049 187.989 115.04 187.961 115.024 187.937C115.009 187.913 114.986 187.894 114.96 187.882Z" fill="#263238"/>
<path d="M114.114 196.802C113.209 196.647 112.283 196.647 111.378 196.802L108.479 196.98C106.559 197.083 104.553 197.196 102.585 197.233C102.564 197.233 102.545 197.241 102.53 197.255C102.516 197.269 102.508 197.288 102.508 197.308C102.508 197.328 102.516 197.347 102.53 197.361C102.545 197.375 102.564 197.383 102.585 197.383C104.581 197.383 106.578 197.383 108.575 197.299L111.513 197.214C112.408 197.268 113.305 197.163 114.162 196.905C114.176 196.899 114.187 196.887 114.193 196.873C114.198 196.859 114.197 196.844 114.191 196.83C114.185 196.816 114.173 196.806 114.159 196.8C114.144 196.795 114.128 196.795 114.114 196.802Z" fill="#263238"/>
<path d="M80.227 180.781L86.6014 211.735C86.6014 211.735 46.9822 221.837 42.8734 212.044C38.7646 202.251 62.0734 165.885 75.5134 155.511C88.9534 145.137 83.9038 161.477 83.491 162.79C81.6766 168.596 73.2286 183.735 73.2286 183.735L80.227 180.781Z" fill="#FFDF27"/>
<path d="M86.6007 211.697C86.6007 211.697 46.9815 221.799 42.8727 212.007C40.6647 206.735 46.3863 193.781 54.2295 181.315L54.3543 181.118L54.5175 180.865C54.5655 180.781 54.6231 180.696 54.6807 180.612C57.5132 176.151 60.5763 171.833 63.8583 167.677L64.1943 167.255C67.5 162.929 71.2899 158.977 75.4935 155.473C88.9335 145.099 83.8839 161.439 83.4711 162.752C83.3463 163.165 83.1831 163.625 82.9911 164.122C82.9143 164.309 82.8375 164.516 82.7511 164.722C81.6471 167.48 79.8711 171.194 78.0759 174.609L77.8647 175.021C77.8647 175.021 77.8647 175.115 77.7975 175.153L77.6823 175.368C75.4071 179.749 73.3431 183.463 73.2183 183.688L80.2263 180.781L86.6007 211.697Z" fill="#FFDF27"/>
<path d="M78.0774 174.609L77.8662 175.022C77.8662 175.022 77.8662 175.115 77.799 175.153L77.319 175.453L73.4118 177.939C71.1186 179.414 68.7223 180.731 66.2406 181.878C64.9842 182.444 63.6673 182.872 62.3142 183.154C60.9444 183.466 59.5151 183.424 58.167 183.032C57.831 182.938 57.4854 182.863 57.207 182.76L56.247 182.357C55.6089 182.091 54.9927 181.777 54.4038 181.419L54.2598 181.334L54.3846 181.137L54.5478 180.884C54.591 180.924 54.6394 180.959 54.6918 180.987L54.8262 181.062C55.3436 181.396 55.8897 181.684 56.4582 181.925L57.4182 182.319L58.3782 182.591C59.6553 182.972 61.012 183.02 62.3142 182.732C63.6359 182.464 64.9235 182.055 66.1542 181.513C68.6191 180.392 71.0023 179.107 73.287 177.667L76.407 175.716L77.223 175.2L78.0774 174.609ZM77.1174 175.181C72.1926 176.354 67.3638 177.845 62.4486 179.018C59.8758 179.646 57.2646 180.199 54.6438 180.612C54.5862 180.697 54.5286 180.781 54.4806 180.865L54.3174 181.119L54.759 181.044C57.3798 180.612 59.9814 180.04 62.5542 179.402C67.1718 178.267 71.703 176.86 76.3014 175.697L77.2614 175.453C77.3766 175.453 77.5014 175.387 77.6262 175.369L77.7414 175.153C77.7414 175.153 77.7414 175.069 77.8086 175.022L77.1174 175.181ZM77.4342 167.386C76.2393 168.015 74.9896 168.54 73.6998 168.953C72.4351 169.374 71.096 169.54 69.7638 169.441C67.7424 169.163 65.8193 168.413 64.1574 167.255L63.8214 167.677C65.5695 168.877 67.5884 169.646 69.7062 169.919C71.109 170.018 72.5177 169.833 73.8438 169.375C75.1731 168.953 76.4588 168.41 77.6838 167.752C79.4282 166.827 81.1232 165.816 82.7622 164.722C82.8486 164.516 82.9254 164.31 83.0022 164.122C81.2183 165.303 79.3726 166.393 77.4726 167.386H77.4342Z" fill="white"/>
<path d="M79.5457 180.809C74.9953 182.366 63.0721 188.182 60.4513 190.564C60.4401 190.578 60.4339 190.596 60.4336 190.614C60.4333 190.632 60.4389 190.65 60.4497 190.664C60.4604 190.679 60.4757 190.69 60.4933 190.696C60.5109 190.701 60.5298 190.701 60.5473 190.695C63.1201 188.923 77.8273 181.878 80.1601 181.015C80.1601 181.015 80.2753 181.287 80.3233 181.362C80.3713 181.437 80.4577 181.409 80.4577 181.306C80.417 181.052 80.3592 180.802 80.2849 180.556L79.5457 180.809Z" fill="#263238"/>
<path d="M76.1572 198.106C75.7252 195.948 74.074 187.3 73.834 185.124C73.834 185.124 73.834 185.077 73.8916 185.124C74.5444 187.15 76.426 195.639 76.8676 197.796C77.8443 202.087 78.5782 206.427 79.066 210.797C79.066 210.872 78.9508 210.919 78.922 210.797C77.7604 206.651 77.002 202.355 76.1572 198.106Z" fill="#263238"/>
<path d="M72.902 183.848C74.1404 181.212 75.6572 178.708 77.0204 176.138C78.3836 173.568 79.7948 171.016 81.062 168.418H81.1196C80.3516 170.191 79.5836 171.964 78.758 173.708C79.0076 173.436 79.238 173.145 79.4684 172.855C79.8908 172.329 80.2748 171.776 80.6588 171.223C80.6588 171.223 80.726 171.223 80.7164 171.223C80.4175 171.843 80.0471 172.429 79.6124 172.967C79.291 173.372 78.938 173.751 78.5564 174.102C78.2204 174.815 77.8652 175.528 77.5004 176.232C76.3184 178.85 74.9352 181.377 73.3628 183.792C73.3052 183.97 72.854 183.97 72.902 183.848Z" fill="#263238"/>
<path d="M59.751 216.059C64.4262 216.003 82.0806 212.616 86.4486 211.735C86.391 211.284 86.4486 211.125 86.3334 210.487C86.3334 210.403 86.4582 210.365 86.4774 210.487C86.5926 211.097 87.015 212.307 86.8422 212.363C84.7398 213.17 64.3398 216.65 59.751 216.275C59.7365 216.275 59.7222 216.272 59.7088 216.266C59.6954 216.261 59.6832 216.253 59.673 216.243C59.6627 216.233 59.6546 216.221 59.649 216.208C59.6435 216.195 59.6406 216.181 59.6406 216.167C59.6406 216.153 59.6435 216.139 59.649 216.126C59.6546 216.112 59.6627 216.101 59.673 216.091C59.6832 216.081 59.6954 216.073 59.7088 216.067C59.7222 216.062 59.7365 216.059 59.751 216.059Z" fill="#263238"/>
<path d="M107.289 212.935L140.159 217.259L152.63 172.62L119.759 168.305L107.289 212.935Z" fill="#263238"/>
<path d="M108.912 213.142L141.773 217.466L154.243 172.836L121.383 168.512L108.912 213.142Z" fill="#37474F"/>
<path d="M136.166 191.568C135.961 192.402 135.45 193.133 134.73 193.624C134.01 194.115 133.131 194.331 132.259 194.232C131.847 194.189 131.45 194.061 131.094 193.855C130.738 193.649 130.432 193.37 130.196 193.038C129.96 192.706 129.8 192.329 129.727 191.931C129.654 191.533 129.669 191.124 129.772 190.733C129.977 189.898 130.488 189.166 131.208 188.673C131.927 188.181 132.807 187.963 133.679 188.06C134.092 188.102 134.49 188.231 134.847 188.437C135.204 188.644 135.511 188.923 135.747 189.256C135.983 189.589 136.142 189.968 136.215 190.367C136.287 190.766 136.27 191.176 136.166 191.568Z" fill="white"/>
<path d="M153.916 182.038C155.289 185.79 159.206 190.677 159.263 193.641C159.302 194.371 159.1 195.094 158.687 195.703C158.274 196.313 157.672 196.777 156.969 197.027C156.969 197.027 159.849 198.781 159.398 201.473C159.196 202.861 156.738 203.762 156.738 203.762C157.36 204.192 157.847 204.781 158.147 205.465C158.447 206.148 158.548 206.9 158.438 207.636C158.034 209.512 155.634 210.14 155.634 210.14C155.634 210.14 157.074 212.551 156.028 214.352C153.897 218.001 136.991 216.321 135.014 209.971C134.054 207.017 138.191 207.645 138.191 207.645C138.191 207.645 132.508 205.347 132.777 201.933C133.046 198.518 138.326 199.644 138.326 199.644C138.326 199.644 132.844 197.374 133.526 193.856C134.207 190.339 139.286 192.215 139.286 192.215C139.286 192.215 135.782 189.401 136.905 186.774C138.758 182.507 145.305 188.754 149.106 188.257L151.785 182.469L153.916 182.038Z" fill="#F7A9A0"/>
<path d="M156.769 187.6C155.809 183.932 160.724 180.011 160.301 176.344C159.735 171.419 153.697 175.594 151.738 182.46L151.172 188.088L156.769 187.6Z" fill="#F7A9A0"/>
<path d="M155.28 210.29C155.293 210.29 155.305 210.295 155.314 210.304C155.323 210.313 155.328 210.325 155.328 210.337C155.328 210.35 155.323 210.362 155.314 210.37C155.305 210.379 155.293 210.384 155.28 210.384C149.368 211.196 143.343 210.238 138 207.636C137.827 207.551 137.904 207.242 138.106 207.307C143.652 209.111 149.437 210.116 155.28 210.29Z" fill="#263238"/>
<path d="M156.817 203.799C156.884 203.799 156.884 203.912 156.817 203.921C150.279 204.769 143.646 203.305 138.116 199.794C137.924 199.663 137.885 199.363 138.116 199.494C141.985 201.67 151.325 203.715 156.817 203.799Z" fill="#263238"/>
<path d="M138.922 191.821C144.365 195.207 150.365 196.511 156.73 197.065C156.807 197.065 156.797 197.187 156.73 197.196C153.543 197.778 149.521 197.037 146.449 196.202C143.572 195.482 140.94 194.036 138.817 192.009C138.721 191.924 138.807 191.746 138.922 191.821Z" fill="#263238"/>
<path d="M98.1799 155.108C98.2951 157.922 98.3815 164.31 93.9463 163.831C92.1636 163.485 90.5206 162.645 89.2135 161.411C87.8144 160.276 86.549 158.993 85.4407 157.584C84.1694 156.054 83.0265 154.426 82.0231 152.716C82.0231 152.65 81.8695 152.716 81.9175 152.791C82.9351 154.508 83.7799 156.28 84.9703 157.903C86.0943 159.476 87.4313 160.893 88.9447 162.115C90.366 163.405 92.1591 164.237 94.0807 164.497C94.9048 164.554 95.7236 164.33 96.3975 163.863C97.0715 163.396 97.5589 162.715 97.7767 161.936C98.4322 159.718 98.57 157.385 98.1799 155.108Z" fill="#263238"/>
<path d="M93.8102 161.008C90.6038 161.28 85.3622 155.38 83.8262 151.375C84.229 149.287 84.7384 147.221 85.3526 145.184C85.8422 143.205 86.3126 140.981 86.6582 138.927L99.3878 143.946C98.2513 146.412 97.4261 149.004 96.9302 151.665C96.9019 151.949 96.9019 152.235 96.9302 152.519C96.9302 152.519 96.9302 152.613 96.9302 152.66C96.959 154.301 96.9014 160.745 93.8102 161.008Z" fill="#F7A9A0"/>
<path d="M96.8929 152.519C96.8978 152.566 96.8978 152.613 96.8929 152.66C96.4362 152.657 95.9805 152.619 95.5297 152.547C87.9073 151.281 87.4753 141.891 87.5137 139.274L90.7009 140.522L99.3409 143.946C98.2049 146.411 97.3827 149.004 96.8929 151.665C96.865 151.949 96.865 152.235 96.8929 152.519Z" fill="#263238"/>
<path d="M85.1992 124.857C83.8744 129.547 86.716 142.801 90.1528 145.69C95.1448 149.892 103.132 150.108 106.742 144.283C110.236 138.655 106.223 121.386 102.393 118.779C96.7576 114.924 87.148 117.972 85.1992 124.857Z" fill="#F7A9A0"/>
<path d="M98.6112 133.243C98.6112 133.243 98.5536 133.299 98.6112 133.336C98.8224 134.228 98.9184 135.288 98.1504 135.747C98.1504 135.747 98.1504 135.803 98.1504 135.794C99.1008 135.456 98.9664 134.059 98.6112 133.243Z" fill="#263238"/>
<path d="M97.6029 132.474C96.1053 132.661 96.6429 135.569 97.9773 135.4C99.3117 135.232 98.8797 132.324 97.6029 132.474Z" fill="#263238"/>
<path d="M103.824 132.258C103.824 132.258 103.91 132.258 103.91 132.333C104.035 133.271 104.333 134.256 105.216 134.425V134.471C104.169 134.471 103.795 133.121 103.824 132.258Z" fill="#263238"/>
<path d="M104.495 131.17C105.964 130.823 106.569 133.712 105.206 133.984C103.842 134.256 103.266 131.461 104.495 131.17Z" fill="#263238"/>
<path d="M96.2011 131.32C96.5757 131.15 96.9381 130.956 97.2859 130.739C97.6885 130.586 98.0268 130.305 98.2459 129.941C98.2953 129.812 98.2995 129.67 98.2578 129.537C98.2162 129.405 98.131 129.29 98.0155 129.21C97.7639 129.084 97.4827 129.027 97.2008 129.043C96.9189 129.06 96.6467 129.15 96.4123 129.303C95.8916 129.544 95.481 129.965 95.2603 130.485C95.2109 130.611 95.2015 130.748 95.2333 130.878C95.265 131.009 95.3365 131.127 95.4382 131.217C95.5399 131.308 95.6672 131.366 95.8034 131.384C95.9395 131.402 96.0781 131.38 96.2011 131.32Z" fill="#263238"/>
<path d="M105.456 130.279C105.034 130.279 104.64 130.204 104.218 130.166C103.777 130.186 103.342 130.064 102.979 129.819C102.883 129.719 102.822 129.59 102.807 129.453C102.791 129.316 102.821 129.178 102.893 129.059C103.073 128.847 103.307 128.686 103.572 128.592C103.837 128.498 104.123 128.475 104.4 128.525C104.979 128.54 105.531 128.768 105.946 129.163C106.034 129.257 106.093 129.375 106.116 129.501C106.138 129.627 106.122 129.757 106.07 129.875C106.018 129.993 105.933 130.094 105.824 130.165C105.715 130.237 105.587 130.276 105.456 130.279Z" fill="#263238"/>
<path d="M98.7461 141.685C98.981 141.915 99.289 142.061 99.6197 142.098C99.9642 142.033 100.291 141.899 100.58 141.704C100.58 141.704 100.647 141.704 100.58 141.751C100.475 141.948 100.319 142.115 100.127 142.234C99.9341 142.353 99.7127 142.419 99.4853 142.426C99.2901 142.406 99.1052 142.33 98.9535 142.208C98.8017 142.087 98.6896 141.924 98.6309 141.741C98.6501 141.695 98.7173 141.638 98.7461 141.685Z" fill="#263238"/>
<path d="M99.2631 138.617C99.5589 138.936 99.9186 139.193 100.32 139.37C100.721 139.548 101.155 139.643 101.596 139.649C101.981 139.657 102.365 139.612 102.738 139.518L102.949 139.462L103.141 139.396C103.19 139.379 103.232 139.347 103.26 139.305C103.288 139.262 103.3 139.212 103.295 139.162C103.301 139.13 103.301 139.099 103.295 139.068V138.993C103.199 138.289 102.949 137.248 102.949 137.248C103.228 137.332 104.658 137.708 104.572 137.342C103.967 134.224 103.038 131.176 101.797 128.243C101.792 128.227 101.781 128.212 101.766 128.202C101.751 128.192 101.734 128.187 101.716 128.187C101.698 128.187 101.68 128.192 101.666 128.202C101.651 128.212 101.64 128.227 101.634 128.243C102.172 131.132 103.237 133.871 103.833 136.788C103.324 136.649 102.796 136.583 102.268 136.591C102.172 136.591 102.786 138.599 102.796 138.918C102.223 139.067 101.625 139.103 101.038 139.022C100.451 138.941 99.8867 138.746 99.3783 138.449C99.2631 138.477 99.1959 138.552 99.2631 138.617Z" fill="#263238"/>
<path d="M102.316 139.349C102.01 139.895 101.567 140.356 101.03 140.691C100.739 140.856 100.405 140.931 100.07 140.906C99.3113 140.841 99.1865 140.193 99.2249 139.612C99.2451 139.293 99.3064 138.978 99.4073 138.674C100.28 139.192 101.298 139.428 102.316 139.349Z" fill="#263238"/>
<path d="M101.03 140.7C100.739 140.865 100.405 140.941 100.07 140.916C99.3113 140.85 99.1865 140.203 99.2249 139.622C99.6055 139.58 99.9893 139.664 100.316 139.859C100.643 140.055 100.894 140.35 101.03 140.7Z" fill="#FF9ABB"/>
<path d="M105.005 122.653C104.237 121.612 103.392 120.571 102.624 120.486C101.856 120.402 101.77 122.203 100.176 122.653C98.0162 123.253 96.5282 121.518 93.4562 121.949C88.9922 122.578 87.8498 126.574 89.0882 132.68C90.1922 138.139 86.9474 139.359 86.9474 139.359C86.9474 139.359 82.2626 127.793 84.845 123.094C87.4274 118.394 94.9826 114.971 101.165 117.644C103.363 118.61 105.005 122.653 105.005 122.653Z" fill="#263238"/>
<path d="M89.2037 136.329C89.2037 136.329 85.9109 132.155 83.9621 133.318C82.0133 134.481 84.6149 140.634 87.0149 141.385C87.3142 141.502 87.6349 141.56 87.9574 141.552C88.28 141.545 88.5977 141.474 88.8913 141.344C89.1849 141.213 89.4482 141.025 89.6653 140.792C89.8824 140.559 90.0487 140.285 90.1541 139.987L89.2037 136.329Z" fill="#F7A9A0"/>
<path d="M84.748 135.072C84.748 135.072 84.748 135.072 84.748 135.137C85.5203 135.473 86.2123 135.962 86.7794 136.575C87.3465 137.187 87.7762 137.908 88.0408 138.692C87.937 138.535 87.7995 138.402 87.6379 138.302C87.4762 138.201 87.2942 138.136 87.1044 138.111C86.9146 138.086 86.7215 138.102 86.5385 138.157C86.3554 138.212 86.1867 138.305 86.044 138.43C86.044 138.43 86.044 138.524 86.092 138.514C86.3782 138.409 86.6906 138.393 86.9863 138.469C87.282 138.545 87.5464 138.708 87.7432 138.936C88.0611 139.326 88.3407 139.743 88.5784 140.184C88.6552 140.325 88.924 140.24 88.8568 140.071C88.7896 137.97 87.0232 135.166 84.748 135.072Z" fill="#263238"/>
<path d="M96.6814 115.993C94.8087 115.471 92.8688 115.215 90.9214 115.233C88.723 115.299 82.0318 116.847 80.6206 118.423C79.2094 119.998 79.7854 126.302 79.891 127.221C79.9966 128.14 81.2926 133.59 83.5582 134.612C85.8238 135.635 84.5182 126.227 87.235 122.625C89.9518 119.023 96.6814 115.993 96.6814 115.993Z" fill="#FFDF27"/>
<path opacity="0.1" d="M96.6808 116.002C96.6808 116.002 89.9608 119.023 87.1864 122.625C84.412 126.227 85.7656 135.625 83.5192 134.612C82.9956 134.33 82.5342 133.949 82.1619 133.492C81.7895 133.035 81.5134 132.51 81.3496 131.948C81.3496 129.134 81.7816 124.726 83.644 121.424C85.3912 118.338 88.9336 116.359 92.8888 115.299C94.1713 115.425 95.4401 115.661 96.6808 116.002Z" fill="black"/>
<path d="M84.9591 140.09C84.7383 137.567 86.2647 130.476 88.3767 126.227C90.4887 121.978 98.1399 118.516 99.2631 118.404C102.009 118.141 102.815 119.342 103.209 119.014C103.602 118.685 100.396 116.106 99.5511 115.777C98.2909 115.381 96.9557 115.265 95.6439 115.44C94.4631 115.646 87.2919 117.475 85.1319 120.918C82.9719 124.36 80.6391 133.449 81.5991 135.522C81.8487 136.019 82.5591 136.245 82.9527 136.957C83.4135 137.895 83.7975 138.974 84.2103 139.612C84.6231 140.25 84.9783 140.306 84.9591 140.09Z" fill="#FFDF27"/>
<path d="M88.7229 124.416C88.0569 124.135 87.4148 123.803 86.8029 123.422C86.1596 123.044 85.5663 122.591 85.0365 122.071C85.0365 122.071 84.9309 122.071 84.9693 122.128C85.4348 122.73 85.9954 123.255 86.6301 123.685C87.2678 124.101 87.9816 124.394 88.7325 124.548C88.7504 124.546 88.767 124.538 88.7787 124.525C88.7904 124.512 88.7962 124.495 88.7949 124.477C88.7937 124.46 88.7854 124.444 88.7719 124.432C88.7584 124.421 88.7408 124.415 88.7229 124.416Z" fill="#263238"/>
<path d="M84.5379 137.595C84.4323 137.427 84.2883 137.286 84.1731 137.126C84.0372 136.947 83.9244 136.751 83.8371 136.545C83.7181 136.141 83.5539 135.751 83.3475 135.382C83.1345 135.108 82.8897 134.859 82.6179 134.641C82.2923 134.411 82.0556 134.08 81.9459 133.703H81.8691C81.9843 134.462 82.5891 134.922 83.0307 135.504C83.2553 135.902 83.4417 136.319 83.5875 136.751C83.7575 137.145 84.054 137.474 84.4323 137.689C84.4803 137.717 84.5667 137.661 84.5379 137.595Z" fill="#263238"/>
<path d="M84.9793 134.763C84.6913 134.519 84.3937 134.303 84.1249 134.031C83.8561 133.759 83.6449 133.468 83.4241 133.177C83.2033 132.887 83.0305 132.577 82.8193 132.239C82.6081 131.902 82.2913 131.573 82.0609 131.208C82.0609 131.208 81.9649 131.208 81.9937 131.264C82.2337 131.63 82.3969 132.052 82.6177 132.427C82.8155 132.752 83.0335 133.066 83.2705 133.365C83.4945 133.655 83.7451 133.925 84.0193 134.172C84.2937 134.429 84.6208 134.628 84.9793 134.753C84.9793 134.753 84.9985 134.781 84.9793 134.763Z" fill="#263238"/>
<path d="M85.5157 132.183C84.9072 131.824 84.3571 131.378 83.8837 130.861C83.4229 130.354 82.9813 129.819 82.5589 129.285C82.5589 129.285 82.4629 129.285 82.4917 129.285C82.8057 129.92 83.2026 130.513 83.6725 131.048C83.9008 131.31 84.1621 131.544 84.4501 131.742C84.762 131.945 85.0931 132.118 85.4389 132.258C85.4389 132.258 85.5637 132.258 85.5157 132.183Z" fill="#263238"/>
<path d="M86.1506 129.688C85.8567 129.551 85.5926 129.36 85.373 129.125C85.1042 128.881 84.845 128.628 84.5954 128.365C84.3458 128.112 84.0962 127.878 83.8562 127.624C83.5969 127.387 83.3909 127.1 83.2514 126.78C83.2514 126.78 83.165 126.78 83.1746 126.78C83.2499 127.122 83.4042 127.443 83.6258 127.718C83.8397 128.052 84.0839 128.366 84.3554 128.656C84.6238 128.927 84.9092 129.18 85.2098 129.416C85.4637 129.643 85.7814 129.79 86.1218 129.838C86.1319 129.84 86.1422 129.84 86.1523 129.838C86.1623 129.836 86.1718 129.832 86.1803 129.826C86.1888 129.82 86.196 129.813 86.2016 129.805C86.2072 129.796 86.2111 129.787 86.213 129.777C86.2149 129.767 86.2147 129.757 86.2126 129.747C86.2105 129.738 86.2065 129.728 86.2007 129.72C86.1949 129.712 86.1875 129.705 86.1789 129.699C86.1703 129.694 86.1607 129.69 86.1506 129.688Z" fill="#263238"/>
<path d="M86.4 126.63C86.1184 126.442 85.8496 126.245 85.5936 126.039C85.344 125.823 85.0944 125.608 84.8544 125.382C84.6144 125.157 84.336 124.913 84.096 124.66C84.096 124.66 84 124.66 84.0288 124.707C84.2116 125.003 84.4204 125.282 84.6528 125.542C84.8822 125.796 85.1292 126.034 85.392 126.255C85.6524 126.476 85.9283 126.68 86.2176 126.864C86.5018 127.077 86.8291 127.227 87.1776 127.305C87.1855 127.3 87.192 127.293 87.1965 127.285C87.201 127.277 87.2034 127.268 87.2034 127.258C87.2034 127.249 87.201 127.24 87.1965 127.232C87.192 127.224 87.1855 127.217 87.1776 127.212C86.9374 126.995 86.677 126.8 86.4 126.63Z" fill="#263238"/>
<path d="M90.4602 122.69C90.153 122.428 89.8554 122.165 89.5002 121.921C89.145 121.677 88.8186 121.461 88.4538 121.255C87.7648 120.842 87.0306 120.505 86.265 120.251C86.265 120.251 86.1786 120.298 86.265 120.327C87.6282 121.152 89.0394 121.921 90.4026 122.765C90.4127 122.773 90.4255 122.776 90.4381 122.774C90.4508 122.772 90.4621 122.766 90.4698 122.756C90.4774 122.746 90.4807 122.733 90.4789 122.721C90.4771 122.709 90.4703 122.698 90.4602 122.69Z" fill="#263238"/>
<path d="M91.661 120.317C91.3644 120.065 91.0428 119.842 90.701 119.651C89.9434 119.279 89.1446 118.992 88.3202 118.798C88.2626 118.798 88.2338 118.854 88.3202 118.873C89.0594 119.201 89.7986 119.52 90.509 119.886C90.8546 120.074 91.2098 120.261 91.5362 120.477C91.8626 120.693 92.141 120.983 92.4962 121.218C92.2835 120.865 91.9993 120.559 91.661 120.317Z" fill="#263238"/>
<path d="M93.6286 119.014C93.3346 118.755 93.0127 118.529 92.6686 118.338C92.0403 117.966 91.3523 117.699 90.6334 117.55C90.6334 117.55 90.5662 117.616 90.6334 117.635C91.3011 117.89 91.9438 118.204 92.5534 118.573C92.8606 118.76 93.1678 118.967 93.5134 119.173C93.859 119.379 94.099 119.642 94.4158 119.811C94.1799 119.521 93.9163 119.254 93.6286 119.014Z" fill="#263238"/>
<path d="M94.963 117.532C94.6654 117.363 94.3486 117.203 94.003 117.053C93.7028 116.889 93.3793 116.768 93.043 116.697V116.781L94.7902 117.785C95.3045 118.133 95.7807 118.532 96.211 118.976C96.211 118.976 96.2686 118.976 96.211 118.976C95.9539 118.382 95.5188 117.879 94.963 117.532Z" fill="#263238"/>
<path d="M96.8159 116.837C96.2478 116.464 95.6126 116.2 94.9439 116.059C94.8959 116.059 94.8767 116.124 94.9439 116.143C95.5693 116.366 96.1555 116.682 96.6815 117.081C97.2146 117.459 97.7039 117.893 98.1407 118.375C98.1407 118.375 98.2079 118.375 98.1887 118.375C97.8661 117.761 97.3949 117.233 96.8159 116.837Z" fill="#263238"/>
<path d="M101.068 117.466C100.891 117.294 100.706 117.131 100.511 116.978C100.316 116.827 100.111 116.689 99.8966 116.565C99.6758 116.434 99.455 116.312 99.2438 116.171C99.2438 116.171 99.1478 116.218 99.2438 116.246C99.4685 116.374 99.6806 116.522 99.8774 116.687L100.434 117.138L101.001 117.588C101.178 117.756 101.368 117.913 101.567 118.057C101.424 117.842 101.257 117.644 101.068 117.466Z" fill="#263238"/>
<path d="M159.773 99.7189C159.373 103.478 157.911 107.054 155.552 110.047C153.192 113.041 150.027 115.335 146.41 116.673C142.793 118.011 138.866 118.341 135.069 117.624C131.272 116.908 127.753 115.174 124.906 112.616L114.461 114.117L119.683 105.3C118.487 102.431 117.975 99.334 118.186 96.2431C118.398 93.1522 119.327 90.149 120.904 87.4615C122.481 84.774 124.664 82.4729 127.287 80.7328C129.91 78.9926 132.904 77.8593 136.042 77.4187C139.18 76.9781 142.38 77.242 145.398 78.1901C148.417 79.1383 151.174 80.7459 153.461 82.8909C155.749 85.0359 157.506 87.662 158.6 90.5696C159.693 93.4773 160.095 96.5902 159.773 99.672V99.7189Z" fill="white"/>
<path d="M159.773 99.7189C159.366 103.472 157.907 107.042 155.558 110.037C154.41 111.55 153.03 112.882 151.469 113.986C149.931 115.129 148.234 116.051 146.429 116.725C144.628 117.414 142.738 117.856 140.813 118.038C139.855 118.117 138.893 118.136 137.933 118.094C136.966 118.064 136.004 117.964 135.053 117.794C131.205 117.105 127.631 115.38 124.733 112.813L124.973 112.888L114.518 114.436L113.76 114.549L114.144 113.901L119.337 105.056V105.413C118.109 102.491 117.584 99.3321 117.802 96.1804C118.02 93.0287 118.975 89.968 120.595 87.2341C122.222 84.5149 124.457 82.1901 127.133 80.4336C130.463 78.2892 134.347 77.1101 138.335 77.0329C142.323 76.9556 146.252 77.9834 149.667 79.9972C153.082 82.0109 155.843 84.9284 157.632 88.412C159.42 91.8956 160.162 95.8027 159.773 99.6814V99.7189ZM159.773 99.7189C160.106 96.6481 159.713 93.5436 158.625 90.6444C157.537 87.7452 155.782 85.1287 153.496 82.9965C151.21 80.8643 148.454 79.2733 145.439 78.3459C142.425 77.4186 139.232 77.1798 136.109 77.6478C133.007 78.1007 130.052 79.2396 127.469 80.9777C124.917 82.7294 122.784 85.0017 121.219 87.6375C119.684 90.2798 118.778 93.2262 118.569 96.2577C118.381 99.2914 118.882 102.328 120.038 105.15L120.115 105.328L120.019 105.497L114.758 114.295L114.393 113.761L124.838 112.326H124.982L125.088 112.419C127.876 114.971 131.336 116.712 135.081 117.447C136.03 117.637 136.993 117.75 137.961 117.785C138.92 117.852 139.883 117.852 140.841 117.785C142.749 117.64 144.626 117.236 146.419 116.584C148.221 115.948 149.917 115.053 151.449 113.93C152.224 113.379 152.961 112.781 153.657 112.138C154.34 111.473 154.982 110.768 155.577 110.028C157.919 107.033 159.371 103.467 159.773 99.7189Z" fill="#263238"/>
<path d="M136.569 109.23L127.66 100.413L130.655 97.524L135.859 102.674L146.678 86.0991L150.23 88.3128L136.569 109.23Z" fill="#FFDF27"/>
</svg>
