<svg width="83" height="83" viewBox="0 0 83 83" fill="none" xmlns="http://www.w3.org/2000/svg">
<path fill-rule="evenodd" clip-rule="evenodd" d="M33.8149 72.6249H49.1838C59.9772 72.6249 65.3757 72.6249 69.2525 70.083C70.9257 68.9872 72.3665 67.5723 73.4924 65.9192C76.0827 62.115 76.0827 56.8134 76.0827 46.2171C76.0827 35.6208 76.0827 30.3191 73.4924 26.515C72.3665 24.8619 70.9257 23.4469 69.2525 22.3511C66.7625 20.7153 63.6431 20.1309 58.8671 19.9234C56.5881 19.9234 54.6272 18.2288 54.1811 16.0328C53.8401 14.4242 52.9543 12.9826 51.6732 11.9517C50.3922 10.9209 48.7945 10.3639 47.1503 10.3749H35.8484C32.4316 10.3749 29.4886 12.7439 28.8176 16.0328C28.3715 18.2288 26.4106 19.9234 24.1316 19.9234C19.3591 20.1309 16.2397 20.7188 13.7462 22.3511C12.0742 23.4473 10.6347 24.8622 9.50977 26.515C6.91602 30.3191 6.91602 35.6173 6.91602 46.2171C6.91602 56.8169 6.91602 62.1116 9.50631 65.9192C10.6268 67.5654 12.0655 68.9798 13.7462 70.083C17.623 72.6249 23.0215 72.6249 33.8149 72.6249ZM41.4993 32.069C33.5417 32.069 27.0885 38.4013 27.0885 46.2136C27.0885 54.026 33.5452 60.3686 41.4993 60.3686C49.4535 60.3686 55.9102 54.0329 55.9102 46.2205C55.9102 38.4082 49.4535 32.069 41.4993 32.069ZM41.4993 37.7269C36.7268 37.7269 32.8535 41.5276 32.8535 46.2171C32.8535 50.9031 36.7268 54.7038 41.4993 54.7038C46.2718 54.7038 50.1452 50.9031 50.1452 46.2171C50.1452 41.531 46.2718 37.7269 41.4993 37.7269ZM57.8296 34.898C57.8296 33.3348 59.1196 32.069 60.7138 32.069H64.5526C66.1434 32.069 67.4368 33.3348 67.4368 34.898C67.4295 35.655 67.122 36.3781 66.5819 36.9086C66.0417 37.439 65.3131 37.7333 64.5561 37.7269H60.7138C60.3387 37.7305 59.9665 37.6602 59.6186 37.5201C59.2706 37.3799 58.9536 37.1725 58.6858 36.9098C58.418 36.6471 58.2045 36.3342 58.0576 35.989C57.9107 35.6439 57.8332 35.2731 57.8296 34.898Z" fill="#757575"/>
</svg>
