<svg width="70" height="70" viewBox="0 0 70 70" fill="none" xmlns="http://www.w3.org/2000/svg">
<path fill-rule="evenodd" clip-rule="evenodd" d="M21.1985 13.5858C30.3833 12.7881 39.62 12.7881 48.8048 13.5858L53.2089 13.9708C55.2561 14.15 57.1835 15.0126 58.6812 16.4198C60.1788 17.827 61.1597 19.697 61.466 21.7291C62.7889 30.5269 62.7889 39.473 61.466 48.2708C61.3474 49.0427 61.1413 49.7758 60.8477 50.4699C60.6552 50.9279 60.0602 50.9979 59.7218 50.6304L46.8273 36.4437C46.5421 36.1301 46.172 35.9061 45.7619 35.7989C45.3518 35.6917 44.9194 35.706 44.5172 35.8399L37.1352 38.3016L26.4281 26.2558C26.23 26.0329 25.9885 25.8529 25.7184 25.7268C25.4482 25.6007 25.1552 25.5312 24.8572 25.5224C24.5592 25.5137 24.2625 25.5659 23.9855 25.676C23.7084 25.7861 23.4568 25.9516 23.246 26.1624L8.9135 40.4949C8.81613 40.595 8.69168 40.6645 8.55539 40.6949C8.41911 40.7253 8.27692 40.7153 8.14626 40.666C8.01559 40.6168 7.90213 40.5305 7.81979 40.4177C7.73744 40.305 7.68979 40.1706 7.68267 40.0312C7.33775 33.9165 7.62314 27.7825 8.53433 21.7262C8.84065 19.6941 9.8215 17.8241 11.3192 16.4169C12.8168 15.0097 14.7442 14.1471 16.7914 13.9679L21.1985 13.5858ZM40.8335 26.2499C40.8335 25.0896 41.2944 23.9768 42.1149 23.1563C42.9354 22.3359 44.0482 21.8749 45.2085 21.8749C46.3688 21.8749 47.4816 22.3359 48.3021 23.1563C49.1226 23.9768 49.5835 25.0896 49.5835 26.2499C49.5835 27.4103 49.1226 28.5231 48.3021 29.3435C47.4816 30.164 46.3688 30.6249 45.2085 30.6249C44.0482 30.6249 42.9354 30.164 42.1149 29.3435C41.2944 28.5231 40.8335 27.4103 40.8335 26.2499Z" fill="#757575"/>
<path d="M8.63677 46.9583C8.558 47.0379 8.49861 47.1345 8.4632 47.2408C8.42779 47.347 8.41732 47.4599 8.4326 47.5708L8.53468 48.2708C8.841 50.3029 9.82185 52.1729 11.3195 53.5801C12.8172 54.9873 14.7446 55.8499 16.7918 56.0292L21.1959 56.4112C30.3834 57.2104 39.6176 57.2104 48.8051 56.4112L53.2093 56.0292C54.4176 55.927 55.593 55.5828 56.6655 55.0171C57.0651 54.81 57.1322 54.2821 56.8288 53.9496L44.8705 40.7954C44.7756 40.6898 44.6518 40.6142 44.5145 40.578C44.3772 40.5417 44.2323 40.5463 44.0976 40.5912L37.1501 42.9071C36.7439 43.0427 36.3069 43.0561 35.8931 42.9457C35.4794 42.8353 35.1072 42.6058 34.8226 42.2858L25.2122 31.4737C25.146 31.3994 25.0654 31.3395 24.9751 31.2975C24.8849 31.2556 24.7871 31.2325 24.6877 31.2298C24.5882 31.227 24.4892 31.2447 24.3969 31.2816C24.3045 31.3186 24.2207 31.374 24.1505 31.4446L8.63677 46.9583Z" fill="#757575"/>
</svg>
